<?xml version="1.0" encoding="utf-8"?>
<!-- Generator: Adobe Illustrator 23.0.0, SVG Export Plug-In . SVG Version: 6.00 Build 0)  -->
<svg version="1.1" id="Ñëîé_1" xmlns="http://www.w3.org/2000/svg" xmlns:xlink="http://www.w3.org/1999/xlink" x="0px" y="0px"
	 viewBox="0 0 600 450" style="enable-background:new 0 0 600 450;" xml:space="preserve">
<style type="text/css">
	.st0{fill:#111111;}
	.st1{opacity:0.5;fill:#006B5E;}
	.st2{fill:#005B4E;}
	.st3{fill:#006B5E;}
	.st4{fill:#DAF7F2;}
	.st5{fill:#FFFFFF;}
	.st6{fill:#009688;}
	.st7{fill:#5793CE;}
	.st8{fill:#231F20;}
	.st9{fill:#D4ECFF;}
	.st10{fill:#FF2C9C;}
	.st11{opacity:0.3;}
	.st12{clip-path:url(#SVGID_2_);}
	.st13{fill:#79B1E0;}
	.st14{fill:#D3008D;}
	.st15{fill:#E573B5;}
	.st16{clip-path:url(#SVGID_4_);}
	.st17{fill:#60EAD6;}
	.st18{fill:#396CAA;}
	.st19{opacity:0.5;fill:#005B4E;}
	.st20{opacity:0.5;fill:#009688;}
	.st21{opacity:0.5;fill:url(#SVGID_5_);enable-background:new    ;}
	.st22{opacity:0.5;fill:url(#SVGID_6_);enable-background:new    ;}
	.st23{opacity:0.5;fill:url(#SVGID_7_);enable-background:new    ;}
	.st24{opacity:0.5;fill:url(#SVGID_8_);enable-background:new    ;}
	.st25{opacity:0.5;fill:url(#SVGID_9_);enable-background:new    ;}
	.st26{opacity:0.5;fill:url(#SVGID_10_);enable-background:new    ;}
	.st27{fill:#00CEB5;}
	.st28{fill:#00E0BF;}
	.st29{fill:#00C4AC;}
</style>
<rect x="-22.21" y="-18.36" class="st0" width="644.47" height="483.35"/>
<path class="st1" d="M322.85,345.56l-142.77-82.43c-4.04-2.33-3.53-6.4,1.13-9.1l97.21-56.11c4.66-2.69,11.72-2.98,15.76-0.65
	l142.77,82.43c4.04,2.33,3.53,6.4-1.13,9.1l-97.21,56.11C333.94,347.6,326.89,347.89,322.85,345.56z"/>
<path class="st2" d="M476.95,120.11L328.39,34.34c-1.73-1-3.48-1.15-5.03-0.62l0.01-0.02l-0.27,0.1c-0.02,0.01-0.04,0.02-0.07,0.02
	l-5.37,2.05l4.82,2.36c-0.02,0.09-0.05,0.17-0.07,0.26l-24.2,110.14c-1.21,5.51,1.21,11.95,5.42,14.37l144.98,83.71l-0.52,6.14
	l5.87-2.27c1.97-0.92,3.55-3.01,4.2-5.98l24.2-110.14C483.57,128.97,481.15,122.54,476.95,120.11z"/>
<path class="st3" d="M476.95,120.11L328.39,34.34c-1.73-1-3.48-1.15-5.03-0.62l0.01-0.02l-0.27,0.1c-0.02,0.01-0.04,0.02-0.07,0.02
	l-5.37,2.05l4.82,2.36c-0.02,0.09-0.05,0.17-0.07,0.26l-15.95,72.59l72.69,56.63l102.49-41.7
	C480.65,123.48,479.02,121.31,476.95,120.11z"/>
<path class="st3" d="M471.35,137.04l11.31-4.81c0.21-4.38-1.61-8.9-4.58-11.32l-17.9,7.53L471.35,137.04z"/>
<path class="st4" d="M442.94,252.3l-148.55-85.77c-4.2-2.43-6.63-8.86-5.42-14.37l24.2-110.14c1.21-5.51,5.6-8.01,9.8-5.59
	l148.55,85.77c4.2,2.43,6.63,8.86,5.42,14.37l-24.2,110.14C451.53,252.22,447.14,254.72,442.94,252.3z"/>
<path class="st5" d="M472.95,121.67L324.39,35.9c-2.04-1.18-4.11-1.17-5.85-0.25c1.4-0.31,2.92-0.09,4.42,0.78l148.55,85.77
	c4.2,2.43,6.63,8.86,5.42,14.37l-24.2,110.14c-0.62,2.84-2.1,4.86-3.95,5.84c2.51-0.55,4.6-2.82,5.38-6.36l24.2-110.14
	C479.57,130.53,477.15,124.09,472.95,121.67z"/>
<path class="st5" d="M439.72,244.1L300,163.48c-3.85-2.22-6.06-8.11-4.96-13.15l22.14-100.79c1.11-5.04,5.12-7.33,8.97-5.11
	l139.71,80.62c3.85,2.22,6.06,8.11,4.96,13.15l-22.14,100.79C447.58,244.03,443.56,246.32,439.72,244.1z"/>
<path class="st6" d="M439.72,244.1L300,163.48c-3.85-2.22-6.06-8.11-4.96-13.15l22.14-100.79c1.11-5.04,5.12-7.33,8.97-5.11
	l139.71,80.62c3.85,2.22,6.06,8.11,4.96,13.15l-22.14,100.79C447.58,244.03,443.56,246.32,439.72,244.1z"/>
<path class="st7" d="M440.93,243.61l-139.71-80.62c-3.85-2.22-6.06-8.11-4.96-13.15l22.14-100.79c0.56-2.55,1.87-4.39,3.52-5.31
	c-2.21,0.57-4.05,2.65-4.74,5.8l-22.14,100.79c-1.11,5.04,1.11,10.93,4.96,13.15l139.71,80.62c1.9,1.1,3.84,1.09,5.45,0.19
	C443.84,244.64,442.37,244.44,440.93,243.61z"/>
<path class="st2" d="M444.99,256.03l-20.31-2.68L293.6,177.67c-4.2-2.43-11.54-2.12-16.4,0.68l-92.88,53.61l-12.28-1.62v6.97l0.01,0
	c-0.08,1.61,0.84,3.16,2.82,4.3l148.55,85.77c4.2,2.43,11.54,2.12,16.4-0.68l101.15-58.38c2.73-1.58,4.09-3.61,4.01-5.51l0,0V256.03
	z"/>
<path class="st6" d="M346.5,208.21l-9.31-5.38H234.8l-50.48,29.12l-12.28-1.62v6.97l0.01,0c-0.08,1.61,0.84,3.16,2.82,4.3
	l148.55,85.77c2.22,1.28,5.32,1.79,8.46,1.59L346.5,208.21z"/>
<path class="st7" d="M177.49,231.05l-5.45-0.72v6.97l0.01,0c-0.08,1.61,0.84,3.16,2.82,4.3l2.62,1.51V231.05z"/>
<path class="st3" d="M324.92,328.27c3.98,1.51,9.68,1.18,13.93-0.86v-15.54h-13.93V328.27z"/>
<path class="st8" d="M323.43,320.42l-148.55-85.77c-4.2-2.43-3.68-6.66,1.18-9.47L277.2,166.8c4.85-2.8,12.19-3.11,16.4-0.68
	l148.55,85.77c4.2,2.43,3.68,6.66-1.18,9.47l-101.15,58.38C334.97,322.54,327.63,322.84,323.43,320.42z"/>
<path class="st5" d="M440.98,258.81l-101.15,58.38c-4.85,2.8-12.19,3.11-16.4,0.68L174.87,232.1c-1.38-0.8-2.24-1.79-2.61-2.86
	c-0.66,1.99,0.18,4,2.61,5.4l148.55,85.77c4.2,2.43,11.54,2.12,16.4-0.68l101.15-58.38c3.26-1.88,4.56-4.41,3.79-6.61
	C444.29,256.19,443.02,257.63,440.98,258.81z"/>
<g>
	<path class="st5" d="M238.05,206.25l-6.72-3.88c-0.54-0.31-0.47-0.86,0.15-1.22l7.93-4.58c0.62-0.36,1.57-0.4,2.11-0.09l6.72,3.88
		c0.54,0.31,0.47,0.86-0.15,1.22l-7.93,4.58C239.54,206.53,238.59,206.56,238.05,206.25z"/>
	<path class="st5" d="M248.43,212.25l-6.72-3.88c-0.54-0.31-0.47-0.86,0.15-1.22l7.93-4.58c0.62-0.36,1.57-0.4,2.11-0.09l6.72,3.88
		c0.54,0.31,0.47,0.86-0.15,1.22l-7.93,4.58C249.92,212.52,248.97,212.56,248.43,212.25z"/>
	<path class="st5" d="M258.81,218.24l-6.72-3.88c-0.54-0.31-0.47-0.86,0.15-1.22l7.93-4.58c0.62-0.36,1.57-0.4,2.11-0.09l6.72,3.88
		c0.54,0.31,0.47,0.86-0.15,1.22l-7.93,4.58C260.3,218.51,259.35,218.55,258.81,218.24z"/>
	<path class="st5" d="M273.17,213.29l-6.72-3.88c-0.54-0.31-0.47-0.86,0.15-1.22l6.66-3.85c0.62-0.36,1.57-0.4,2.11-0.09l6.72,3.88
		c0.54,0.31,0.47,0.86-0.15,1.22l-6.66,3.85C274.65,213.56,273.71,213.6,273.17,213.29z"/>
	<path class="st5" d="M283.55,219.28l-6.72-3.88c-0.54-0.31-0.47-0.86,0.15-1.22l6.66-3.85c0.62-0.36,1.57-0.4,2.11-0.09l6.72,3.88
		c0.54,0.31,0.47,0.86-0.15,1.22l-6.66,3.85C285.03,219.56,284.09,219.59,283.55,219.28z"/>
	<path class="st5" d="M293.93,225.28l-6.72-3.88c-0.54-0.31-0.47-0.86,0.15-1.22l6.66-3.85c0.62-0.36,1.57-0.4,2.11-0.09l6.72,3.88
		c0.54,0.31,0.47,0.86-0.15,1.22l-6.66,3.85C295.41,225.55,294.47,225.59,293.93,225.28z"/>
	<path class="st5" d="M304.31,231.27l-6.72-3.88c-0.54-0.31-0.47-0.86,0.15-1.22l6.66-3.85c0.62-0.36,1.57-0.4,2.11-0.09l6.72,3.88
		c0.54,0.31,0.47,0.86-0.15,1.22l-6.66,3.85C305.79,231.54,304.85,231.58,304.31,231.27z"/>
	<path class="st5" d="M314.69,237.26l-6.72-3.88c-0.54-0.31-0.47-0.86,0.15-1.22l6.66-3.85c0.62-0.36,1.57-0.4,2.11-0.09l6.72,3.88
		c0.54,0.31,0.47,0.86-0.15,1.22l-6.66,3.85C316.17,237.53,315.23,237.57,314.69,237.26z"/>
	<path class="st5" d="M325.07,243.25l-6.72-3.88c-0.54-0.31-0.47-0.86,0.15-1.22l6.66-3.85c0.62-0.36,1.57-0.4,2.11-0.09l6.72,3.88
		c0.54,0.31,0.47,0.86-0.15,1.22l-6.66,3.85C326.55,243.53,325.61,243.57,325.07,243.25z"/>
	<path class="st5" d="M288.46,210.45l-6.72-3.88c-0.54-0.31-0.47-0.86,0.15-1.22l6.66-3.85c0.62-0.36,1.57-0.4,2.11-0.09l6.72,3.88
		c0.54,0.31,0.47,0.86-0.15,1.22l-6.66,3.85C289.95,210.73,289,210.76,288.46,210.45z"/>
	<path class="st5" d="M277.93,204.37l-6.72-3.88c-0.54-0.31-0.47-0.86,0.15-1.22l6.66-3.85c0.62-0.36,1.57-0.4,2.11-0.09l6.72,3.88
		c0.54,0.31,0.47,0.86-0.15,1.22l-6.66,3.85C279.41,204.64,278.47,204.68,277.93,204.37z"/>
	<path class="st5" d="M267.38,198.28l-14.48-8.36c-0.54-0.31-0.47-0.86,0.15-1.22l6.66-3.85c0.62-0.36,1.57-0.4,2.11-0.09
		l14.48,8.36c0.54,0.31,0.47,0.86-0.15,1.22l-6.66,3.85C268.86,198.55,267.92,198.59,267.38,198.28z"/>
	<path class="st5" d="M274.75,190.87l-11.75-6.78c-0.54-0.31-0.47-0.86,0.15-1.22l6.66-3.85c0.62-0.36,1.57-0.4,2.11-0.09
		l11.75,6.78c0.54,0.31,0.47,0.86-0.15,1.22l-6.66,3.85C276.24,191.14,275.29,191.18,274.75,190.87z"/>
	<path class="st5" d="M298.84,216.45l-6.72-3.88c-0.54-0.31-0.47-0.86,0.15-1.22l6.66-3.85c0.62-0.36,1.57-0.4,2.11-0.09l6.72,3.88
		c0.54,0.31,0.47,0.86-0.15,1.22l-6.66,3.85C300.33,216.72,299.38,216.76,298.84,216.45z"/>
	<path class="st5" d="M309.22,222.44l-6.72-3.88c-0.54-0.31-0.47-0.86,0.15-1.22l6.66-3.85c0.62-0.36,1.57-0.4,2.11-0.09l6.72,3.88
		c0.54,0.31,0.47,0.86-0.15,1.22l-6.66,3.85C310.71,222.71,309.76,222.75,309.22,222.44z"/>
	<path class="st5" d="M319.6,228.43l-6.72-3.88c-0.54-0.31-0.47-0.86,0.15-1.22l6.66-3.85c0.62-0.36,1.57-0.4,2.11-0.09l6.72,3.88
		c0.54,0.31,0.47,0.86-0.15,1.22l-6.66,3.85C321.09,228.7,320.14,228.74,319.6,228.43z"/>
	<path class="st5" d="M329.98,234.42l-6.72-3.88c-0.54-0.31-0.47-0.86,0.15-1.22l6.66-3.85c0.62-0.36,1.57-0.4,2.11-0.09l6.72,3.88
		c0.54,0.31,0.47,0.86-0.15,1.22l-6.66,3.85C331.47,234.7,330.52,234.74,329.98,234.42z"/>
	<path class="st5" d="M317.02,215.27l-6.72-3.88c-0.54-0.31-0.47-0.86,0.15-1.22l6.66-3.85c0.62-0.36,1.57-0.4,2.11-0.09l6.72,3.88
		c0.54,0.31,0.47,0.86-0.15,1.22l-6.66,3.85C318.5,215.55,317.56,215.58,317.02,215.27z"/>
	<path class="st5" d="M306.38,209.13l-6.72-3.88c-0.54-0.31-0.47-0.86,0.15-1.22l6.66-3.85c0.62-0.36,1.57-0.4,2.11-0.09l6.72,3.88
		c0.54,0.31,0.47,0.86-0.15,1.22l-6.66,3.84C307.87,209.4,306.92,209.44,306.38,209.13z"/>
	<path class="st5" d="M295.75,202.99l-6.72-3.88c-0.54-0.31-0.47-0.86,0.15-1.22l6.66-3.85c0.62-0.36,1.57-0.4,2.11-0.09l6.72,3.88
		c0.54,0.31,0.47,0.86-0.15,1.22l-6.66,3.85C297.23,203.26,296.29,203.3,295.75,202.99z"/>
	<path class="st5" d="M285.11,196.85l-6.72-3.88c-0.54-0.31-0.47-0.86,0.15-1.22l6.66-3.85c0.62-0.36,1.57-0.4,2.11-0.09l6.72,3.88
		c0.54,0.31,0.47,0.86-0.15,1.22l-6.66,3.85C286.59,197.12,285.65,197.16,285.11,196.85z"/>
	<path class="st5" d="M327.4,221.27l-6.72-3.88c-0.54-0.31-0.47-0.86,0.15-1.22l6.66-3.85c0.62-0.36,1.57-0.4,2.11-0.09l6.72,3.88
		c0.54,0.31,0.47,0.86-0.15,1.22l-6.66,3.85C328.88,221.54,327.94,221.58,327.4,221.27z"/>
	<path class="st5" d="M337.78,227.26l-6.72-3.88c-0.54-0.31-0.47-0.86,0.15-1.22l6.66-3.85c0.62-0.36,1.57-0.4,2.11-0.09l6.72,3.88
		c0.54,0.31,0.47,0.86-0.15,1.22l-6.66,3.85C339.26,227.53,338.32,227.57,337.78,227.26z"/>
	<path class="st5" d="M348.16,233.25l-6.72-3.88c-0.54-0.31-0.47-0.86,0.15-1.22l6.66-3.85c0.62-0.36,1.57-0.4,2.11-0.09l6.72,3.88
		c0.54,0.31,0.47,0.86-0.15,1.22l-6.66,3.85C349.64,233.52,348.7,233.56,348.16,233.25z"/>
	<path class="st5" d="M311.56,200.45l-6.72-3.88c-0.54-0.31-0.47-0.86,0.15-1.22l6.66-3.85c0.62-0.36,1.57-0.4,2.11-0.09l6.72,3.88
		c0.54,0.31,0.47,0.86-0.15,1.22l-6.66,3.85C313.04,200.72,312.1,200.76,311.56,200.45z"/>
	<path class="st5" d="M301.23,194.49l-6.72-3.88c-0.54-0.31-0.47-0.86,0.15-1.22l6.66-3.85c0.62-0.36,1.57-0.4,2.11-0.09l6.72,3.88
		c0.54,0.31,0.47,0.86-0.15,1.22l-6.66,3.85C302.71,194.76,301.77,194.8,301.23,194.49z"/>
	<path class="st5" d="M290.9,188.52l-6.72-3.88c-0.54-0.31-0.47-0.86,0.15-1.22l6.66-3.85c0.62-0.36,1.57-0.4,2.11-0.09l6.72,3.88
		c0.54,0.31,0.47,0.86-0.15,1.22l-6.66,3.85C292.38,188.8,291.44,188.84,290.9,188.52z"/>
	<path class="st5" d="M280.57,182.56l-6.72-3.88c-0.54-0.31-0.47-0.86,0.15-1.22l6.66-3.85c0.62-0.36,1.57-0.4,2.11-0.09l6.72,3.88
		c0.54,0.31,0.47,0.86-0.15,1.22l-6.66,3.85C282.05,182.83,281.11,182.87,280.57,182.56z"/>
	<path class="st5" d="M291.19,176.43l-6.72-3.88c-0.54-0.31-0.47-0.86,0.15-1.22l2.2-1.27c0.62-0.36,1.57-0.4,2.11-0.09l6.72,3.88
		c0.54,0.31,0.47,0.86-0.15,1.22l-2.2,1.27C292.67,176.7,291.73,176.74,291.19,176.43z"/>
	<path class="st5" d="M304.67,184.21l-6.72-3.88c-0.54-0.31-0.47-0.86,0.15-1.22l2.2-1.27c0.62-0.36,1.57-0.4,2.11-0.09l6.72,3.88
		c0.54,0.31,0.47,0.86-0.15,1.22l-2.2,1.27C306.15,184.48,305.21,184.52,304.67,184.21z"/>
	<path class="st7" d="M314.96,190.15l-6.72-3.88c-0.54-0.31-0.47-0.86,0.15-1.22l2.2-1.27c0.62-0.36,1.57-0.4,2.11-0.09l6.72,3.88
		c0.54,0.31,0.47,0.86-0.15,1.22l-2.2,1.27C316.44,190.42,315.5,190.46,314.96,190.15z"/>
	<path class="st7" d="M325.24,196.09l-6.72-3.88c-0.54-0.31-0.47-0.86,0.15-1.22l2.2-1.27c0.62-0.36,1.57-0.4,2.11-0.09l6.72,3.88
		c0.54,0.31,0.47,0.86-0.15,1.22l-2.2,1.27C326.72,196.36,325.78,196.4,325.24,196.09z"/>
	<path class="st7" d="M335.53,202.03l-6.72-3.88c-0.54-0.31-0.47-0.86,0.15-1.22l2.2-1.27c0.62-0.36,1.57-0.4,2.11-0.09l6.72,3.88
		c0.54,0.31,0.47,0.86-0.15,1.22l-2.2,1.27C337.01,202.3,336.07,202.34,335.53,202.03z"/>
	<path class="st5" d="M321.94,206.44l-6.72-3.88c-0.54-0.31-0.47-0.86,0.15-1.22l6.66-3.85c0.62-0.36,1.57-0.4,2.11-0.09l6.72,3.88
		c0.54,0.31,0.47,0.86-0.15,1.22l-6.66,3.85C323.42,206.72,322.48,206.75,321.94,206.44z"/>
	<path class="st5" d="M332.32,212.44l-6.72-3.88c-0.54-0.31-0.47-0.86,0.15-1.22l6.66-3.85c0.62-0.36,1.57-0.4,2.11-0.09l6.72,3.88
		c0.54,0.31,0.47,0.86-0.15,1.22l-6.66,3.85C333.8,212.71,332.86,212.75,332.32,212.44z"/>
	<path class="st5" d="M342.7,218.43l-6.72-3.88c-0.54-0.31-0.47-0.86,0.15-1.22l6.66-3.85c0.62-0.36,1.57-0.4,2.11-0.09l6.72,3.88
		c0.54,0.31,0.47,0.86-0.15,1.22l-6.66,3.85C344.18,218.7,343.24,218.74,342.7,218.43z"/>
	<path class="st5" d="M262.59,207.18l-19.8-11.43c-0.54-0.31-0.47-0.86,0.15-1.22l6.66-3.85c0.62-0.36,1.57-0.4,2.11-0.09
		l19.8,11.43c0.54,0.31,0.47,0.86-0.15,1.22l-6.66,3.85C264.07,207.46,263.13,207.49,262.59,207.18z"/>
	<path class="st5" d="M273.22,226.56l-10.75-6.21c-0.54-0.31-0.47-0.86,0.15-1.22l7.93-4.58c0.62-0.36,1.57-0.4,2.11-0.09
		l10.75,6.21c0.54,0.31,0.47,0.86-0.15,1.22l-7.93,4.58C274.7,226.83,273.76,226.87,273.22,226.56z"/>
	<path class="st5" d="M287.71,223.16l46.74,26.98c0.58,0.33,0.58,0.88,0,1.21l-8.09,4.67c-0.58,0.33-1.52,0.33-2.1,0l-46.74-26.98
		L287.71,223.16z"/>
	<g>
		<path class="st5" d="M335.45,249.25l-6.72-3.88c-0.54-0.31-0.47-0.86,0.15-1.22l6.66-3.85c0.62-0.36,1.57-0.4,2.11-0.09l6.72,3.88
			c0.54,0.31,0.47,0.86-0.15,1.22l-6.66,3.85C336.93,249.52,335.99,249.56,335.45,249.25z"/>
		<path class="st5" d="M345.83,255.24l-6.72-3.88c-0.54-0.31-0.47-0.86,0.15-1.22l6.66-3.85c0.62-0.36,1.57-0.4,2.11-0.09l6.72,3.88
			c0.54,0.31,0.47,0.86-0.15,1.22l-6.66,3.85C347.31,255.51,346.37,255.55,345.83,255.24z"/>
		<path class="st5" d="M356.21,261.23l-6.72-3.88c-0.54-0.31-0.47-0.86,0.15-1.22l6.66-3.85c0.62-0.36,1.57-0.4,2.11-0.09l6.72,3.88
			c0.54,0.31,0.47,0.86-0.15,1.22l-6.66,3.85C357.69,261.51,356.75,261.54,356.21,261.23z"/>
		<path class="st5" d="M366.59,267.23l-6.72-3.88c-0.54-0.31-0.47-0.86,0.15-1.22l6.66-3.85c0.62-0.36,1.57-0.4,2.11-0.09l6.72,3.88
			c0.54,0.31,0.47,0.86-0.15,1.22l-6.66,3.85C368.07,267.5,367.13,267.54,366.59,267.23z"/>
		<path class="st5" d="M340.36,240.42l-6.72-3.88c-0.54-0.31-0.47-0.86,0.15-1.22l6.66-3.85c0.62-0.36,1.57-0.4,2.11-0.09l6.72,3.88
			c0.54,0.31,0.47,0.86-0.15,1.22l-6.66,3.85C341.85,240.69,340.9,240.73,340.36,240.42z"/>
		<path class="st5" d="M350.74,246.41l-6.72-3.88c-0.54-0.31-0.47-0.86,0.15-1.22l6.66-3.85c0.62-0.36,1.57-0.4,2.11-0.09l6.72,3.88
			c0.54,0.31,0.47,0.86-0.15,1.22l-6.66,3.85C352.23,246.68,351.28,246.72,350.74,246.41z"/>
		<path class="st5" d="M361.12,252.4l-6.72-3.88c-0.54-0.31-0.47-0.86,0.15-1.22l6.66-3.85c0.62-0.36,1.57-0.4,2.11-0.09l6.72,3.88
			c0.54,0.31,0.47,0.86-0.15,1.22l-6.66,3.85C362.61,252.68,361.66,252.71,361.12,252.4z"/>
		<path class="st5" d="M371.5,258.4l-6.72-3.88c-0.54-0.31-0.47-0.86,0.15-1.22l6.66-3.85c0.62-0.36,1.57-0.4,2.11-0.09l6.72,3.88
			c0.54,0.31,0.47,0.86-0.15,1.22l-6.66,3.85C372.99,258.67,372.04,258.71,371.5,258.4z"/>
		<path class="st5" d="M381.88,264.39l-6.72-3.88c-0.54-0.31-0.47-0.86,0.15-1.22l6.66-3.85c0.62-0.36,1.57-0.4,2.11-0.09l6.72,3.88
			c0.54,0.31,0.47,0.86-0.15,1.22l-6.66,3.85C383.37,264.66,382.42,264.7,381.88,264.39z"/>
		<path class="st5" d="M400.34,275.04l-14.67-8.47c-0.54-0.31-0.47-0.86,0.15-1.22l6.66-3.85c0.62-0.36,1.57-0.4,2.11-0.09
			l14.67,8.47c0.54,0.31,0.47,0.86-0.15,1.22l-6.66,3.85C401.82,275.32,400.88,275.35,400.34,275.04z"/>
		<path class="st5" d="M420.55,263.38l-12.38-7.15c-0.54-0.31-0.47-0.86,0.15-1.22l6.66-3.85c0.62-0.36,1.57-0.4,2.11-0.09
			l12.38,7.15c0.54,0.31,0.47,0.86-0.15,1.22l-6.66,3.85C422.03,263.65,421.09,263.69,420.55,263.38z"/>
		<path class="st5" d="M358.54,239.24l-6.72-3.88c-0.54-0.31-0.47-0.86,0.15-1.22l6.66-3.85c0.62-0.36,1.57-0.4,2.11-0.09l6.72,3.88
			c0.54,0.31,0.47,0.86-0.15,1.22l-6.66,3.85C360.02,239.52,359.08,239.56,358.54,239.24z"/>
		<path class="st5" d="M368.92,245.24l-6.72-3.88c-0.54-0.31-0.47-0.86,0.15-1.22l6.66-3.85c0.62-0.36,1.57-0.4,2.11-0.09l6.72,3.88
			c0.54,0.31,0.47,0.86-0.15,1.22l-6.66,3.85C370.4,245.51,369.46,245.55,368.92,245.24z"/>
		<path class="st5" d="M379.3,251.23l-6.72-3.88c-0.54-0.31-0.47-0.86,0.15-1.22l6.66-3.85c0.62-0.36,1.57-0.4,2.11-0.09l6.72,3.88
			c0.54,0.31,0.47,0.86-0.15,1.22l-6.66,3.85C380.78,251.5,379.84,251.54,379.3,251.23z"/>
		<path class="st5" d="M389.68,257.22l-6.72-3.88c-0.54-0.31-0.47-0.86,0.15-1.22l6.66-3.85c0.62-0.36,1.57-0.4,2.11-0.09l6.72,3.88
			c0.54,0.31,0.47,0.86-0.15,1.22l-6.66,3.85C391.16,257.5,390.22,257.54,389.68,257.22z"/>
		<path class="st5" d="M400.06,263.22l-6.72-3.88c-0.54-0.31-0.47-0.86,0.15-1.22l6.66-3.85c0.62-0.36,1.57-0.4,2.11-0.09l6.72,3.88
			c0.54,0.31,0.47,0.86-0.15,1.22l-6.66,3.85C401.54,263.49,400.6,263.53,400.06,263.22z"/>
		<path class="st5" d="M410.44,269.21l-6.72-3.88c-0.54-0.31-0.47-0.86,0.15-1.22l6.66-3.85c0.62-0.36,1.57-0.4,2.11-0.09l6.72,3.88
			c0.54,0.31,0.47,0.86-0.15,1.22l-6.66,3.85C411.92,269.48,410.98,269.52,410.44,269.21z"/>
		<path class="st5" d="M392.95,235.18l-6.72-3.88c-0.54-0.31-0.47-0.86,0.15-1.22l2.2-1.27c0.62-0.36,1.57-0.4,2.11-0.09l6.72,3.88
			c0.54,0.31,0.47,0.86-0.15,1.22l-2.2,1.27C394.43,235.45,393.49,235.49,392.95,235.18z"/>
		<path class="st5" d="M403.23,241.12l-6.72-3.88c-0.54-0.31-0.47-0.86,0.15-1.22l2.2-1.27c0.62-0.36,1.57-0.4,2.11-0.09l6.72,3.88
			c0.54,0.31,0.47,0.86-0.15,1.22l-2.2,1.27C404.72,241.39,403.77,241.43,403.23,241.12z"/>
		<path class="st5" d="M413.52,247.05l-6.72-3.88c-0.54-0.31-0.47-0.86,0.15-1.22l2.2-1.27c0.62-0.36,1.57-0.4,2.11-0.09l6.72,3.88
			c0.54,0.31,0.47,0.86-0.15,1.22l-2.2,1.27C415,247.33,414.06,247.37,413.52,247.05z"/>
		<path class="st5" d="M423.8,252.99l-6.72-3.88c-0.54-0.31-0.47-0.86,0.15-1.22l2.2-1.27c0.62-0.36,1.57-0.4,2.11-0.09l6.72,3.88
			c0.54,0.31,0.47,0.86-0.15,1.22l-2.2,1.27C425.29,253.27,424.34,253.3,423.8,252.99z"/>
		<path class="st5" d="M353.08,224.42l-6.72-3.88c-0.54-0.31-0.47-0.86,0.15-1.22l6.66-3.85c0.62-0.36,1.57-0.4,2.11-0.09l6.72,3.88
			c0.54,0.31,0.47,0.86-0.15,1.22l-6.66,3.85C354.56,224.69,353.62,224.73,353.08,224.42z"/>
		<path class="st5" d="M363.46,230.41l-6.72-3.88c-0.54-0.31-0.47-0.86,0.15-1.22l6.66-3.85c0.62-0.36,1.57-0.4,2.11-0.09l6.72,3.88
			c0.54,0.31,0.47,0.86-0.15,1.22l-6.66,3.85C364.94,230.69,364,230.73,363.46,230.41z"/>
		<path class="st5" d="M373.84,236.41l-6.72-3.88c-0.54-0.31-0.47-0.86,0.15-1.22l6.66-3.85c0.62-0.36,1.57-0.4,2.11-0.09l6.72,3.88
			c0.54,0.31,0.47,0.86-0.15,1.22l-6.66,3.85C375.32,236.68,374.38,236.72,373.84,236.41z"/>
		<path class="st5" d="M384.22,242.4l-6.72-3.88c-0.54-0.31-0.47-0.86,0.15-1.22l6.66-3.85c0.62-0.36,1.57-0.4,2.11-0.09l6.72,3.88
			c0.54,0.31,0.47,0.86-0.15,1.22l-6.66,3.85C385.7,242.67,384.76,242.71,384.22,242.4z"/>
		<path class="st5" d="M394.6,248.39l-6.72-3.88c-0.54-0.31-0.47-0.86,0.15-1.22l6.66-3.85c0.62-0.36,1.57-0.4,2.11-0.09l6.72,3.88
			c0.54,0.31,0.47,0.86-0.15,1.22l-6.66,3.85C396.08,248.67,395.14,248.7,394.6,248.39z"/>
		<path class="st5" d="M404.98,254.39l-6.72-3.88c-0.54-0.31-0.47-0.86,0.15-1.22l6.66-3.85c0.62-0.36,1.57-0.4,2.11-0.09l6.72,3.88
			c0.54,0.31,0.47,0.86-0.15,1.22l-6.66,3.85C406.46,254.66,405.52,254.7,404.98,254.39z"/>
		<path class="st5" d="M390.11,280.81l-19.8-11.43c-0.54-0.31-0.47-0.86,0.15-1.22l6.66-3.85c0.62-0.36,1.57-0.4,2.11-0.09
			l19.8,11.43c0.54,0.31,0.47,0.86-0.15,1.22l-6.66,3.85C391.6,281.08,390.65,281.12,390.11,280.81z"/>
		<path class="st5" d="M348.6,270.08l-6.72-3.88c-0.54-0.31-0.47-0.86,0.15-1.22l7.93-4.58c0.62-0.36,1.57-0.4,2.11-0.09l6.72,3.88
			c0.54,0.31,0.47,0.86-0.15,1.22l-7.93,4.58C350.08,270.35,349.14,270.39,348.6,270.08z"/>
		<path class="st5" d="M338.6,264.3l-10.75-6.21c-0.54-0.31-0.47-0.86,0.15-1.22l7.93-4.58c0.62-0.36,1.57-0.4,2.11-0.09l10.75,6.21
			c0.54,0.31,0.47,0.86-0.15,1.22l-7.93,4.58C340.08,264.58,339.14,264.62,338.6,264.3z"/>
		<path class="st5" d="M377.61,280.94l7.49,4.32c0.44,0.26,0.39,0.7-0.12,1l-3.25,1.87c-0.51,0.29-1.28,0.33-1.73,0.07l-7.49-4.32
			c-0.44-0.26-0.39-0.7,0.12-1l3.25-1.87C376.4,280.72,377.17,280.69,377.61,280.94z"/>
		<path class="st5" d="M367.15,274.9l7.49,4.32c0.44,0.26,0.39,0.7-0.12,1l-3.25,1.87c-0.51,0.29-1.28,0.33-1.73,0.07l-7.49-4.32
			c-0.44-0.26-0.39-0.7,0.12-1l3.25-1.87C365.93,274.68,366.7,274.65,367.15,274.9z"/>
		<path class="st5" d="M356.77,268.91l7.49,4.32c0.44,0.26,0.39,0.7-0.12,1l-3.25,1.87c-0.51,0.29-1.28,0.33-1.73,0.07l-7.49-4.32
			c-0.44-0.26-0.39-0.7,0.12-1l3.25-1.87C355.55,268.69,356.32,268.65,356.77,268.91z"/>
		<path class="st5" d="M372.88,271.59l7.49,4.32c0.44,0.26,0.39,0.7-0.12,1l-3.25,1.87c-0.51,0.3-1.28,0.33-1.73,0.07l-7.49-4.32
			c-0.44-0.26-0.39-0.7,0.12-1l3.25-1.87C371.66,271.37,372.44,271.34,372.88,271.59z"/>
	</g>
</g>
<g>
	<polygon class="st9" points="413.88,154.65 357.97,122.37 358.69,118.74 414.6,151.02 	"/>
	<polygon class="st9" points="393.86,160.79 354.83,138.25 355.55,134.62 394.58,157.15 	"/>
	<polygon class="st5" points="390.16,149.81 356.4,130.31 357.12,126.68 390.88,146.17 	"/>
	<polygon class="st10" points="412.31,162.59 395.43,152.85 396.15,149.21 413.03,158.96 	"/>
	<polygon class="st9" points="352.01,90.66 335.13,80.91 335.85,77.28 352.73,87.03 	"/>
	<polygon class="st5" points="350.18,99.11 333.3,89.36 334.02,85.73 350.9,95.47 	"/>
	<polygon class="st9" points="433.04,216.28 416.16,206.53 416.88,202.89 433.76,212.64 	"/>
	<polygon class="st9" points="346.52,116 329.64,106.26 330.36,102.62 347.24,112.37 	"/>
</g>
<g>
	<path class="st10" d="M383,118.62c-0.54,1.17-1.9,1.59-3.04,0.93c-1.14-0.66-1.63-2.14-1.09-3.31c0.54-1.17,1.9-1.59,3.04-0.93
		C383.05,115.96,383.53,117.45,383,118.62z"/>
	<path class="st5" d="M390.27,122.82c-0.54,1.17-1.9,1.59-3.04,0.93s-1.63-2.14-1.09-3.32c0.54-1.17,1.9-1.59,3.04-0.93
		C390.32,120.16,390.81,121.64,390.27,122.82z"/>
	<path class="st9" d="M397.54,127.02c-0.54,1.17-1.9,1.59-3.04,0.93c-1.14-0.66-1.63-2.14-1.09-3.32c0.54-1.17,1.9-1.59,3.04-0.93
		C397.59,124.36,398.08,125.84,397.54,127.02z"/>
	<path class="st10" d="M404.81,131.21c-0.54,1.17-1.9,1.59-3.04,0.93c-1.14-0.66-1.63-2.14-1.09-3.32c0.54-1.17,1.9-1.59,3.04-0.93
		C404.86,128.56,405.35,130.04,404.81,131.21z"/>
</g>
<path class="st5" d="M283.94,282.52l-46.35-26.76c-1.35-0.78-1.18-2.14,0.38-3.04l27.97-16.15c1.56-0.9,3.91-1,5.26-0.22
	l46.35,26.76c1.35,0.78,1.18,2.14-0.38,3.04l-27.97,16.15C287.65,283.2,285.29,283.29,283.94,282.52z"/>
<g class="st11">
	<defs>
		<path id="SVGID_1_" class="st11" d="M409.8,217.78l22.74-92.82l-85.91-50.92l49.59-22.85L460,75.78c0,0,0.39,112.4,0,113.53
			c-0.39,1.13-23.63,38.84-23.63,38.84L409.8,217.78z"/>
	</defs>
	<clipPath id="SVGID_2_">
		<use xlink:href="#SVGID_1_"  style="overflow:visible;"/>
	</clipPath>
	<g class="st12">
		<g>
			<g>
				<path class="st9" d="M384.53,162c3.19,1.84,3.19,4.84,0,6.69l-54.27,31.33c-0.88,0.51-2.3,0.51-3.18,0
					c-0.88-0.51-0.88-1.33,0-1.84l54.27-31.33c1.44-0.83,1.44-2.18,0-3.02l-5.26-3.04c0.58-0.88,1.11-1.79,1.63-2.73L384.53,162z"/>
				<path class="st7" d="M307.66,186.98l54.27-31.33c3.19-1.84,8.39-1.84,11.58,0l4.21,2.43c-0.52,0.93-1.05,1.85-1.63,2.73
					l-5.75-3.32c-1.44-0.83-3.78-0.83-5.22,0l-54.27,31.33c-0.88,0.51-2.3,0.51-3.18,0C306.79,188.31,306.79,187.48,307.66,186.98z"
					/>
			</g>
			<polygon class="st7" points="307.01,187.96 307,111.65 363.88,79.94 371.83,79.42 379.52,84.4 384.24,88.51 328.83,176.38 
				310.74,187.04 			"/>
			<polygon class="st13" points="328.04,197.6 311.04,187.78 311.04,114.03 328.57,122.17 			"/>
			<polygon class="st9" points="386.92,89.1 386.92,165.29 327.22,199.44 326.42,199.12 326.42,122.82 			"/>
			<g>
				<path class="st5" d="M353.34,89.73l11.87-6.82c1.45-0.67,3.57-0.63,4.91,0.15l11.01,6.36c0.85,0.49,1.2,1.17,1.04,1.81
					l-29.98,17.92l-24.08,14.78l-17.06-9.89L353.34,89.73z"/>
			</g>
			<path class="st7" d="M328.57,121.62v75.71v1.6v1.47c-0.54-0.01-1.08-0.14-1.49-0.37c-0.43-0.25-0.65-0.57-0.66-0.9l0,0v-0.01
				v-0.01v-76.28L328.57,121.62z"/>
			<polygon class="st5" points="307,112.6 307,111.65 307.31,111.65 307.4,112.29 			"/>
			<polygon class="st5" points="326.42,123.81 326.42,122.83 326.71,123.24 			"/>
			<g>
				<path class="st9" d="M330.26,123.72l54.27-31.33c3.19-1.84,3.19-4.84,0-6.69l-11.01-6.36c-3.19-1.84-8.39-1.84-11.58,0
					l-54.27,31.33c-0.88,0.51-0.88,1.33,0,1.84c0.88,0.51,2.3,0.51,3.18,0l54.27-31.33c1.44-0.83,3.78-0.83,5.22,0l11.01,6.36
					c1.44,0.83,1.44,2.18,0,3.02l-54.27,31.33c-0.88,0.51-0.88,1.33,0,1.84C327.96,124.23,329.38,124.23,330.26,123.72z"/>
			</g>
			<polygon class="st5" points="344.4,159.84 372.6,143.56 372.6,115.29 344.4,131.57 			"/>
			<g>
				<path class="st5" d="M307.66,112.51c0.88,0.51,2.3,0.51,3.18,0l54.27-31.33c1.44-0.83,3.78-0.83,5.22,0l11.01,6.36
					c0.94,0.54,1.26,1.31,0.97,2.01c-0.15-0.37-0.48-0.72-0.97-1.01l-11.01-6.36c-1.44-0.83-3.78-0.83-5.22,0l-54.27,31.33
					c-0.88,0.51-2.3,0.51-3.18,0c-0.67-0.38-0.82-0.95-0.48-1.42C307.29,112.25,307.45,112.39,307.66,112.51z"/>
				<path class="st5" d="M327.08,123.72c0.88,0.51,2.3,0.51,3.18,0l54.27-31.33c1.38-0.79,2.15-1.8,2.35-2.84
					c0.25,1.37-0.53,2.8-2.35,3.85l-54.27,31.33c-0.88,0.51-2.3,0.51-3.18,0c-0.67-0.38-0.82-0.95-0.48-1.42
					C326.71,123.46,326.87,123.6,327.08,123.72z"/>
			</g>
		</g>
		<g>
			<g>
				<path class="st10" d="M409.48,176.77c3.19,1.84,3.19,4.84,0,6.69l-54.27,31.33c-0.88,0.51-2.3,0.51-3.18,0
					c-0.88-0.51-0.88-1.33,0-1.84l54.27-31.33c1.44-0.83,1.44-2.18,0-3.02l-5.26-3.04c0.58-0.88,1.11-1.79,1.63-2.73L409.48,176.77z
					"/>
				<path class="st14" d="M332.61,201.75l54.27-31.33c3.19-1.84,8.39-1.84,11.58,0l4.21,2.43c-0.52,0.93-1.05,1.85-1.63,2.73
					l-5.75-3.32c-1.44-0.83-3.78-0.83-5.22,0l-54.27,31.33c-0.88,0.51-2.3,0.51-3.18,0C331.74,203.08,331.74,202.26,332.61,201.75z"
					/>
			</g>
			<polygon class="st14" points="331.96,202.73 331.96,126.42 388.83,94.71 396.78,94.19 404.47,99.17 409.19,103.28 353.78,191.15 
				335.69,201.81 			"/>
			<polygon class="st15" points="353,212.37 336,202.56 336,128.8 353.52,136.95 			"/>
			<polygon class="st10" points="411.87,103.87 411.87,180.06 352.17,214.21 351.37,213.89 351.37,137.59 			"/>
			<g>
				<path class="st5" d="M378.29,104.5l11.87-6.82c1.45-0.67,3.57-0.63,4.91,0.15l11.01,6.36c0.85,0.49,1.2,1.17,1.04,1.81
					l-29.98,17.92l-24.08,14.78L336,128.8L378.29,104.5z"/>
			</g>
			<path class="st14" d="M353.52,136.39v75.71v1.6v1.47c-0.54-0.01-1.08-0.14-1.49-0.37c-0.43-0.25-0.65-0.57-0.66-0.9l0,0v-0.01
				v-0.01v-76.28L353.52,136.39z"/>
			<polygon class="st5" points="331.96,127.37 331.96,126.42 332.26,126.42 332.35,127.06 			"/>
			<polygon class="st5" points="351.37,138.58 351.37,137.6 351.67,138.02 			"/>
			<g>
				<path class="st10" d="M355.21,138.49l54.27-31.33c3.19-1.84,3.19-4.84,0-6.69l-11.01-6.36c-3.19-1.84-8.39-1.84-11.58,0
					l-54.27,31.33c-0.88,0.51-0.88,1.33,0,1.84c0.88,0.51,2.3,0.51,3.18,0l54.27-31.33c1.44-0.83,3.78-0.83,5.22,0l11.01,6.36
					c1.44,0.83,1.44,2.18,0,3.02l-54.27,31.33c-0.88,0.51-0.88,1.33,0,1.84C352.91,139,354.33,139,355.21,138.49z"/>
			</g>
			<polygon class="st5" points="369.35,174.61 397.55,158.33 397.55,130.06 369.35,146.34 			"/>
			<g>
				<path class="st5" d="M332.61,127.28c0.88,0.51,2.3,0.51,3.18,0l54.27-31.33c1.44-0.83,3.78-0.83,5.22,0l11.01,6.36
					c0.94,0.54,1.26,1.31,0.97,2.01c-0.15-0.37-0.48-0.72-0.97-1l-11.01-6.36c-1.44-0.83-3.78-0.83-5.22,0l-54.27,31.33
					c-0.88,0.51-2.3,0.51-3.18,0c-0.67-0.38-0.82-0.95-0.48-1.42C332.24,127.02,332.4,127.16,332.61,127.28z"/>
				<path class="st5" d="M352.03,138.49c0.88,0.51,2.3,0.51,3.18,0l54.27-31.33c1.38-0.79,2.15-1.8,2.35-2.84
					c0.25,1.37-0.53,2.8-2.35,3.85l-54.27,31.33c-0.88,0.51-2.3,0.51-3.18,0c-0.67-0.38-0.82-0.95-0.48-1.42
					C351.66,138.23,351.82,138.37,352.03,138.49z"/>
			</g>
		</g>
		<g>
			<g>
				<path class="st9" d="M435.12,192.56c3.19,1.84,3.19,4.84,0,6.69l-54.27,31.33c-0.88,0.51-2.3,0.51-3.18,0
					c-0.88-0.51-0.88-1.33,0-1.84l54.27-31.33c1.44-0.83,1.44-2.18,0-3.02l-5.26-3.04c0.58-0.88,1.11-1.79,1.63-2.73L435.12,192.56z
					"/>
				<path class="st7" d="M358.25,217.54l54.27-31.33c3.19-1.84,8.39-1.84,11.58,0l4.21,2.43c-0.52,0.93-1.05,1.85-1.63,2.73
					l-5.75-3.32c-1.44-0.83-3.78-0.83-5.22,0l-54.27,31.33c-0.88,0.51-2.3,0.51-3.18,0C357.38,218.87,357.38,218.04,358.25,217.54z"
					/>
			</g>
			<polygon class="st7" points="357.6,218.52 357.59,142.2 414.47,110.5 422.42,109.98 430.11,114.96 434.83,119.06 379.42,206.94 
				361.33,217.6 			"/>
			<polygon class="st13" points="378.63,228.16 361.63,218.34 361.63,144.59 379.16,152.73 			"/>
			<polygon class="st9" points="437.51,119.66 437.51,195.85 377.81,230 377.01,229.68 377.01,153.38 			"/>
			<g>
				<path class="st5" d="M403.93,120.29l11.87-6.82c1.45-0.67,3.57-0.63,4.91,0.15l11.01,6.36c0.85,0.49,1.2,1.17,1.04,1.81
					l-29.98,17.92l-24.08,14.78l-17.06-9.89L403.93,120.29z"/>
			</g>
			<path class="st7" d="M379.16,152.18v75.71v1.6v1.47c-0.54-0.01-1.08-0.14-1.49-0.37c-0.43-0.25-0.65-0.57-0.66-0.9l0,0v-0.01
				v-0.01v-76.28L379.16,152.18z"/>
			<polygon class="st5" points="357.59,143.16 357.59,142.2 357.9,142.2 357.99,142.85 			"/>
			<polygon class="st5" points="377.01,154.36 377.01,153.39 377.3,153.8 			"/>
			<g>
				<path class="st9" d="M380.85,154.28l54.27-31.33c3.19-1.84,3.19-4.84,0-6.69l-11.01-6.36c-3.19-1.84-8.39-1.84-11.58,0
					l-54.27,31.33c-0.88,0.51-0.88,1.33,0,1.84c0.88,0.51,2.3,0.51,3.18,0l54.27-31.33c1.44-0.83,3.78-0.83,5.22,0l11.01,6.36
					c1.44,0.83,1.44,2.18,0,3.02l-54.27,31.33c-0.88,0.51-0.88,1.33,0,1.84C378.54,154.79,379.97,154.79,380.85,154.28z"/>
			</g>
			<polygon class="st5" points="394.99,190.4 423.19,174.12 423.19,145.85 394.99,162.13 			"/>
			<g>
				<path class="st5" d="M358.25,143.07c0.88,0.51,2.3,0.51,3.18,0l54.27-31.33c1.44-0.83,3.78-0.83,5.22,0l11.01,6.36
					c0.94,0.54,1.26,1.31,0.97,2.01c-0.15-0.37-0.48-0.72-0.97-1l-11.01-6.36c-1.44-0.83-3.78-0.83-5.22,0l-54.27,31.33
					c-0.88,0.51-2.3,0.51-3.18,0c-0.67-0.38-0.82-0.95-0.48-1.42C357.88,142.81,358.04,142.95,358.25,143.07z"/>
				<path class="st5" d="M377.67,154.28c0.88,0.51,2.3,0.51,3.18,0l54.27-31.33c1.38-0.79,2.15-1.8,2.35-2.84
					c0.25,1.37-0.53,2.8-2.35,3.85l-54.27,31.33c-0.88,0.51-2.3,0.51-3.18,0c-0.67-0.38-0.82-0.95-0.48-1.42
					C377.3,154.01,377.45,154.16,377.67,154.28z"/>
			</g>
		</g>
	</g>
</g>
<g>
	<defs>
		<path id="SVGID_3_" d="M409.8,217.78l22.74-92.82l-85.91-50.92L241.88,113l80.38,104.89c0,0,66.37,37.82,65.98,38.95
			c-0.39,1.13,48.13-28.68,48.13-28.68L409.8,217.78z"/>
	</defs>
	<clipPath id="SVGID_4_">
		<use xlink:href="#SVGID_3_"  style="overflow:visible;"/>
	</clipPath>
	<g class="st16">
		<g>
			<g>
				<path class="st9" d="M384.53,162c3.19,1.84,3.19,4.84,0,6.69l-54.27,31.33c-0.88,0.51-2.3,0.51-3.18,0
					c-0.88-0.51-0.88-1.33,0-1.84l54.27-31.33c1.44-0.83,1.44-2.18,0-3.02l-5.26-3.04c0.58-0.88,1.11-1.79,1.63-2.73L384.53,162z"/>
				<path class="st7" d="M307.66,186.98l54.27-31.33c3.19-1.84,8.39-1.84,11.58,0l4.21,2.43c-0.52,0.93-1.05,1.85-1.63,2.73
					l-5.75-3.32c-1.44-0.83-3.78-0.83-5.22,0l-54.27,31.33c-0.88,0.51-2.3,0.51-3.18,0C306.79,188.31,306.79,187.48,307.66,186.98z"
					/>
			</g>
			<polygon class="st3" points="307.01,187.96 307,111.65 363.88,79.94 371.83,79.42 379.52,84.4 384.24,88.51 328.83,176.38 
				310.74,187.04 			"/>
			<polygon class="st17" points="328.04,197.6 311.04,187.78 311.04,114.03 328.57,122.17 			"/>
			<polygon class="st17" points="386.92,89.1 386.92,165.29 327.22,199.44 326.42,199.12 326.42,122.82 			"/>
			<g>
				<path class="st5" d="M353.34,89.73l11.87-6.82c1.45-0.67,3.57-0.63,4.91,0.15l11.01,6.36c0.85,0.49,1.2,1.17,1.04,1.81
					l-29.98,17.92l-24.08,14.78l-17.06-9.89L353.34,89.73z"/>
			</g>
			<path class="st3" d="M328.57,121.62v75.71v1.6v1.47c-0.54-0.01-1.08-0.14-1.49-0.37c-0.43-0.25-0.65-0.57-0.66-0.9l0,0v-0.01
				v-0.01v-76.28L328.57,121.62z"/>
			<polygon class="st5" points="307,112.6 307,111.65 307.31,111.65 307.4,112.29 			"/>
			<polygon class="st5" points="326.42,123.81 326.42,122.83 326.71,123.24 			"/>
			<g>
				<path class="st17" d="M330.26,123.72l54.27-31.33c3.19-1.84,3.19-4.84,0-6.69l-11.01-6.36c-3.19-1.84-8.39-1.84-11.58,0
					l-54.27,31.33c-0.88,0.51-0.88,1.33,0,1.84c0.88,0.51,2.3,0.51,3.18,0l54.27-31.33c1.44-0.83,3.78-0.83,5.22,0l11.01,6.36
					c1.44,0.83,1.44,2.18,0,3.02l-54.27,31.33c-0.88,0.51-0.88,1.33,0,1.84C327.96,124.23,329.38,124.23,330.26,123.72z"/>
			</g>
			<polygon class="st5" points="344.4,159.84 372.6,143.56 372.6,115.29 344.4,131.57 			"/>
			<g>
				<path class="st5" d="M307.66,112.51c0.88,0.51,2.3,0.51,3.18,0l54.27-31.33c1.44-0.83,3.78-0.83,5.22,0l11.01,6.36
					c0.94,0.54,1.26,1.31,0.97,2.01c-0.15-0.37-0.48-0.72-0.97-1.01l-11.01-6.36c-1.44-0.83-3.78-0.83-5.22,0l-54.27,31.33
					c-0.88,0.51-2.3,0.51-3.18,0c-0.67-0.38-0.82-0.95-0.48-1.42C307.29,112.25,307.45,112.39,307.66,112.51z"/>
				<path class="st5" d="M327.08,123.72c0.88,0.51,2.3,0.51,3.18,0l54.27-31.33c1.38-0.79,2.15-1.8,2.35-2.84
					c0.25,1.37-0.53,2.8-2.35,3.85l-54.27,31.33c-0.88,0.51-2.3,0.51-3.18,0c-0.67-0.38-0.82-0.95-0.48-1.42
					C326.71,123.46,326.87,123.6,327.08,123.72z"/>
			</g>
		</g>
		<g>
			<g>
				<path class="st10" d="M409.48,176.77c3.19,1.84,3.19,4.84,0,6.69l-54.27,31.33c-0.88,0.51-2.3,0.51-3.18,0
					c-0.88-0.51-0.88-1.33,0-1.84l54.27-31.33c1.44-0.83,1.44-2.18,0-3.02l-5.26-3.04c0.58-0.88,1.11-1.79,1.63-2.73L409.48,176.77z
					"/>
				<path class="st14" d="M332.61,201.75l54.27-31.33c3.19-1.84,8.39-1.84,11.58,0l4.21,2.43c-0.52,0.93-1.05,1.85-1.63,2.73
					l-5.75-3.32c-1.44-0.83-3.78-0.83-5.22,0l-54.27,31.33c-0.88,0.51-2.3,0.51-3.18,0C331.74,203.08,331.74,202.26,332.61,201.75z"
					/>
			</g>
			<polygon class="st2" points="331.96,202.73 331.96,126.42 388.83,94.71 396.78,94.19 404.47,99.17 409.19,103.28 353.78,191.15 
				335.69,201.81 			"/>
			<polygon class="st17" points="353,212.37 336,202.56 336,128.8 353.52,136.95 			"/>
			<polygon class="st6" points="411.87,103.87 411.87,180.06 352.17,214.21 351.37,213.89 351.37,137.59 			"/>
			<g>
				<path class="st5" d="M378.29,104.5l11.87-6.82c1.45-0.67,3.57-0.63,4.91,0.15l11.01,6.36c0.85,0.49,1.2,1.17,1.04,1.81
					l-29.98,17.92l-24.08,14.78L336,128.8L378.29,104.5z"/>
			</g>
			<path class="st2" d="M353.52,136.39v75.71v1.6v1.47c-0.54-0.01-1.08-0.14-1.49-0.37c-0.43-0.25-0.65-0.57-0.66-0.9l0,0v-0.01
				v-0.01v-76.28L353.52,136.39z"/>
			<polygon class="st5" points="331.96,127.37 331.96,126.42 332.26,126.42 332.35,127.06 			"/>
			<polygon class="st5" points="351.37,138.58 351.37,137.6 351.67,138.02 			"/>
			<g>
				<path class="st3" d="M355.21,138.49l54.27-31.33c3.19-1.84,3.19-4.84,0-6.69l-11.01-6.36c-3.19-1.84-8.39-1.84-11.58,0
					l-54.27,31.33c-0.88,0.51-0.88,1.33,0,1.84c0.88,0.51,2.3,0.51,3.18,0l54.27-31.33c1.44-0.83,3.78-0.83,5.22,0l11.01,6.36
					c1.44,0.83,1.44,2.18,0,3.02l-54.27,31.33c-0.88,0.51-0.88,1.33,0,1.84C352.91,139,354.33,139,355.21,138.49z"/>
			</g>
			<polygon class="st5" points="369.35,174.61 397.55,158.33 397.55,130.06 369.35,146.34 			"/>
			<g>
				<path class="st5" d="M332.61,127.28c0.88,0.51,2.3,0.51,3.18,0l54.27-31.33c1.44-0.83,3.78-0.83,5.22,0l11.01,6.36
					c0.94,0.54,1.26,1.31,0.97,2.01c-0.15-0.37-0.48-0.72-0.97-1l-11.01-6.36c-1.44-0.83-3.78-0.83-5.22,0l-54.27,31.33
					c-0.88,0.51-2.3,0.51-3.18,0c-0.67-0.38-0.82-0.95-0.48-1.42C332.24,127.02,332.4,127.16,332.61,127.28z"/>
				<path class="st5" d="M352.03,138.49c0.88,0.51,2.3,0.51,3.18,0l54.27-31.33c1.38-0.79,2.15-1.8,2.35-2.84
					c0.25,1.37-0.53,2.8-2.35,3.85l-54.27,31.33c-0.88,0.51-2.3,0.51-3.18,0c-0.67-0.38-0.82-0.95-0.48-1.42
					C351.66,138.23,351.82,138.37,352.03,138.49z"/>
			</g>
		</g>
		<g>
			<g>
				<path class="st9" d="M435.12,192.56c3.19,1.84,3.19,4.84,0,6.69l-54.27,31.33c-0.88,0.51-2.3,0.51-3.18,0
					c-0.88-0.51-0.88-1.33,0-1.84l54.27-31.33c1.44-0.83,1.44-2.18,0-3.02l-5.26-3.04c0.58-0.88,1.11-1.79,1.63-2.73L435.12,192.56z
					"/>
				<path class="st7" d="M358.25,217.54l54.27-31.33c3.19-1.84,8.39-1.84,11.58,0l4.21,2.43c-0.52,0.93-1.05,1.85-1.63,2.73
					l-5.75-3.32c-1.44-0.83-3.78-0.83-5.22,0l-54.27,31.33c-0.88,0.51-2.3,0.51-3.18,0C357.38,218.87,357.38,218.04,358.25,217.54z"
					/>
			</g>
			<polygon class="st3" points="357.6,218.52 357.59,142.2 414.47,110.5 422.42,109.98 430.11,114.96 434.83,119.06 379.42,206.94 
				361.33,217.6 			"/>
			<polygon class="st17" points="378.63,228.16 361.63,218.34 361.63,144.59 379.16,152.73 			"/>
			<polygon class="st6" points="437.51,119.66 437.51,195.85 377.81,230 377.01,229.68 377.01,153.38 			"/>
			<g>
				<path class="st5" d="M403.93,120.29l11.87-6.82c1.45-0.67,3.57-0.63,4.91,0.15l11.01,6.36c0.85,0.49,1.2,1.17,1.04,1.81
					l-29.98,17.92l-24.08,14.78l-17.06-9.89L403.93,120.29z"/>
			</g>
			<path class="st3" d="M379.16,152.18v75.71v1.6v1.47c-0.54-0.01-1.08-0.14-1.49-0.37c-0.43-0.25-0.65-0.57-0.66-0.9l0,0v-0.01
				v-0.01v-76.28L379.16,152.18z"/>
			<polygon class="st5" points="357.59,143.16 357.59,142.2 357.9,142.2 357.99,142.85 			"/>
			<polygon class="st5" points="377.01,154.36 377.01,153.39 377.3,153.8 			"/>
			<g>
				<path class="st17" d="M380.85,154.28l54.27-31.33c3.19-1.84,3.19-4.84,0-6.69l-11.01-6.36c-3.19-1.84-8.39-1.84-11.58,0
					l-54.27,31.33c-0.88,0.51-0.88,1.33,0,1.84c0.88,0.51,2.3,0.51,3.18,0l54.27-31.33c1.44-0.83,3.78-0.83,5.22,0l11.01,6.36
					c1.44,0.83,1.44,2.18,0,3.02l-54.27,31.33c-0.88,0.51-0.88,1.33,0,1.84C378.54,154.79,379.97,154.79,380.85,154.28z"/>
			</g>
			<polygon class="st5" points="394.99,190.4 423.19,174.12 423.19,145.85 394.99,162.13 			"/>
			<g>
				<path class="st5" d="M358.25,143.07c0.88,0.51,2.3,0.51,3.18,0l54.27-31.33c1.44-0.83,3.78-0.83,5.22,0l11.01,6.36
					c0.94,0.54,1.26,1.31,0.97,2.01c-0.15-0.37-0.48-0.72-0.97-1l-11.01-6.36c-1.44-0.83-3.78-0.83-5.22,0l-54.27,31.33
					c-0.88,0.51-2.3,0.51-3.18,0c-0.67-0.38-0.82-0.95-0.48-1.42C357.88,142.81,358.04,142.95,358.25,143.07z"/>
				<path class="st5" d="M377.67,154.28c0.88,0.51,2.3,0.51,3.18,0l54.27-31.33c1.38-0.79,2.15-1.8,2.35-2.84
					c0.25,1.37-0.53,2.8-2.35,3.85l-54.27,31.33c-0.88,0.51-2.3,0.51-3.18,0c-0.67-0.38-0.82-0.95-0.48-1.42
					C377.3,154.01,377.45,154.16,377.67,154.28z"/>
			</g>
		</g>
	</g>
</g>
<g>
	<path class="st1" d="M458.29,315.09c-2.15-1.24-5.63-1.24-7.77,0l-100.24,57.9c-2.15,1.24-2.15,3.25,0,4.49
		c2.15,1.24,5.63,1.24,7.77,0l100.24-57.9C460.43,318.34,460.43,316.33,458.29,315.09z"/>
	<g>
		<g>
			<path class="st9" d="M475.42,283.73L475.42,283.73c-0.1-0.16-0.29-0.25-0.47-0.21l-6.06,1.31l2.39,4.06l4.1-4.66
				C475.5,284.1,475.51,283.89,475.42,283.73z"/>
			<g>
				<path class="st6" d="M473.03,286.72c-0.01-0.87-0.63-1.93-1.39-2.36c-0.35-0.2-0.67-0.22-0.91-0.11
					c-7.01-0.06-13.9,1.79-19.94,5.34l-0.44,0.26l7.53,12.81l2.22-1.47c4.71-3.12,8.67-7.23,11.62-12.05l0.95-1.55
					C472.9,287.42,473.03,287.13,473.03,286.72z"/>
				<path class="st9" d="M459.39,299.24c-0.03-3.35-2.41-7.41-5.33-9.06c-2.92-1.65-5.26-0.28-5.23,3.07
					c0.03,3.35,2.41,7.41,5.33,9.06C457.08,303.97,459.42,302.59,459.39,299.24z"/>
				<polygon class="st4" points="413.18,330.5 457.88,302.65 450.35,289.84 404.28,315.36 				"/>
				<path class="st9" d="M414.97,326.47c-0.03-3.96-2.85-8.75-6.29-10.71s-6.21-0.33-6.18,3.63c0.03,3.96,2.85,8.75,6.29,10.71
					C412.23,332.05,415,330.43,414.97,326.47z"/>
			</g>
			<g>
				<path class="st9" d="M412.42,327.97c-0.03-3.96-2.85-8.75-6.29-10.71c-3.44-1.95-6.21-0.33-6.18,3.63
					c0.03,3.96,2.85,8.75,6.29,10.71C409.68,333.55,412.45,331.93,412.42,327.97z"/>
				
					<rect x="342.31" y="333.03" transform="matrix(0.8621 -0.5067 0.5067 0.8621 -121.2743 237.9807)" class="st9" width="68.6" height="17.56"/>
				<path class="st9" d="M353.28,362.73c-0.03-3.96-2.85-8.75-6.29-10.71c-3.44-1.95-6.21-0.33-6.18,3.63
					c0.03,3.96,2.85,8.75,6.29,10.71C350.54,368.31,353.31,366.69,353.28,362.73z"/>
				<path class="st18" d="M351.05,361.46c-0.14-2.34-2.04-5.25-4.25-6.5c-2.21-1.25-3.89-0.38-3.76,1.96
					c0.14,2.34,2.04,5.25,4.25,6.5C349.5,364.68,351.18,363.8,351.05,361.46z"/>
			</g>
			<g>
				<path class="st5" d="M415.42,326.2c-0.03-3.96-2.85-8.75-6.29-10.71c-1.39-0.79-2.66-0.98-3.69-0.69
					c1.12-1.17,2.95-1.31,5.04-0.12c3.44,1.95,6.26,6.75,6.29,10.71c0.02,2.36-0.97,3.89-2.49,4.32
					C415,328.95,415.43,327.76,415.42,326.2z"/>
				<path class="st3" d="M415.42,326.2c-0.03-3.96-2.85-8.75-6.29-10.71c-1.72-0.98-3.28-1.06-4.39-0.4l-3.35,1.97l1.6,2.72
					c0.29,3.6,2.7,7.7,5.71,9.71l1.6,2.72l3.35-1.97l0,0C414.75,329.58,415.43,328.18,415.42,326.2z"/>
				<path class="st4" d="M412.07,328.17c-0.03-3.96-2.85-8.75-6.29-10.71c-3.44-1.95-6.21-0.33-6.18,3.63
					c0.03,3.96,2.85,8.75,6.29,10.71C409.33,333.76,412.1,332.13,412.07,328.17z"/>
			</g>
			<g>
				<path class="st6" d="M348.26,363.22l-3.84-6.53l-12.53,7.37c-1.8,1.06-2.41,3.38-1.35,5.19l0,0c1.06,1.8,3.38,2.41,5.19,1.35
					L348.26,363.22z"/>
				<path class="st6" d="M349.04,361.48c-0.01-1.71-1.23-3.78-2.72-4.62s-2.68-0.14-2.67,1.57c0.01,1.71,1.23,3.78,2.72,4.62
					C347.86,363.89,349.05,363.19,349.04,361.48z"/>
			</g>
			<g>
				<path class="st4" d="M362.97,338.42l-1.88-1.07c-1.08-0.61-2.51-0.46-4.02,0.43l-6.44,3.79c-1.22,0.71-2.2,2.44-2.19,3.85
					l0.03,3.22c0,0.54-0.26,1.16-0.65,1.62l0.24,1.49l-1.61-0.92l0,0c-0.23-0.12-0.38-0.39-0.38-0.78l-0.03-3.22
					c-0.02-2.94,2.02-6.55,4.56-8.04l6.44-3.79c2.15-1.26,4.18-1.48,5.72-0.61l1.88,1.07c1.08,0.61,2.51,0.46,4.02-0.43l25.96-15.26
					c0.34-0.2,0.64-0.21,0.86-0.08l0,0l1.6,0.92l-1.37,0.53c-0.19,0.58-0.59,1.14-1.07,1.42l-25.96,15.26
					C366.53,339.08,364.5,339.29,362.97,338.42z"/>
				<path class="st3" d="M362.71,338.29c-1.08-0.61-2.51-0.46-4.02,0.43l-6.44,3.79c-1.22,0.71-2.2,2.44-2.19,3.85l0.03,3.22
					c0.01,0.77-0.52,1.7-1.19,2.09c-0.66,0.39-1.2,0.08-1.21-0.68l-0.03-3.22c-0.02-2.94,2.02-6.55,4.56-8.04l6.44-3.79
					c2.15-1.27,4.18-1.48,5.72-0.61l1.88,1.07c1.08,0.61,2.51,0.46,4.02-0.43l25.96-15.26c0.66-0.39,1.2-0.08,1.21,0.68
					c0.01,0.77-0.52,1.7-1.19,2.09l-25.96,15.26c-2.15,1.27-4.18,1.48-5.72,0.61L362.71,338.29z"/>
				<g>
					<path class="st5" d="M349.99,346.89l0.03,3.22c0,0.02-0.01,0.04-0.01,0.07c0.06-0.2,0.09-0.41,0.09-0.6l-0.03-3.22
						c0-0.09,0.01-0.19,0.02-0.28C350.03,346.35,349.98,346.63,349.99,346.89z"/>
				</g>
			</g>
		</g>
	</g>
</g>
<g>
	<g>
		<ellipse class="st19" cx="327.49" cy="283.6" rx="20.39" ry="11.77"/>
		<path class="st3" d="M350.68,273.53v-6.51h-1.23c-1.1-1.9-2.94-3.69-5.56-5.2c-9.06-5.23-23.74-5.23-32.8,0
			c-2.62,1.51-4.46,3.3-5.56,5.2h-1.23v6.48h0c-0.02,3.44,2.25,6.88,6.79,9.5c9.06,5.23,23.74,5.23,32.8,0
			C348.42,280.39,350.68,276.96,350.68,273.53z"/>
		<ellipse class="st6" cx="327.49" cy="268.24" rx="23.19" ry="13.39"/>
		<path class="st5" d="M343.89,276.49c-9.06,5.23-23.74,5.23-32.8,0c-4.34-2.51-6.58-5.76-6.76-9.04c-0.2,3.57,2.04,7.17,6.76,9.89
			c9.06,5.23,23.74,5.23,32.8,0c4.72-2.72,6.95-6.33,6.76-9.89C350.46,270.73,348.23,273.98,343.89,276.49z"/>
	</g>
	<g>
		<path class="st5" d="M316.31,271.46c-0.39-0.23-0.61-0.53-0.61-0.85l0.02-8.72c0-0.66,0.94-1.2,2.09-1.2
			c1.15,0,2.08,0.54,2.08,1.21l-0.02,7.23l21-2.57c1.13-0.14,2.24,0.28,2.48,0.93c0.24,0.65-0.48,1.29-1.61,1.43l-23.52,2.88
			c-0.62,0.08-1.26-0.01-1.75-0.24C316.41,271.51,316.36,271.49,316.31,271.46z"/>
	</g>
</g>
<g>
	<g>
		<polygon class="st20" points="207.62,199.41 190.39,189.46 207.62,179.52 224.85,189.46 		"/>
		<linearGradient id="SVGID_5_" gradientUnits="userSpaceOnUse" x1="207.6232" y1="171.86" x2="224.8539" y2="171.86">
			<stop  offset="0" style="stop-color:#42E8E0"/>
			<stop  offset="0.056" style="stop-color:#3ED0C9"/>
			<stop  offset="0.176" style="stop-color:#37A19C"/>
			<stop  offset="0.301" style="stop-color:#317976"/>
			<stop  offset="0.429" style="stop-color:#2C5957"/>
			<stop  offset="0.559" style="stop-color:#283F3F"/>
			<stop  offset="0.694" style="stop-color:#252D2E"/>
			<stop  offset="0.837" style="stop-color:#242223"/>
			<stop  offset="1" style="stop-color:#231F20"/>
		</linearGradient>
		<polygon class="st21" points="224.85,176.83 207.62,186.78 207.62,166.89 224.85,156.94 		"/>
		<linearGradient id="SVGID_6_" gradientUnits="userSpaceOnUse" x1="190.3925" y1="156.9384" x2="224.8534" y2="156.9384">
			<stop  offset="0" style="stop-color:#42E8E0"/>
			<stop  offset="0.056" style="stop-color:#3ED0C9"/>
			<stop  offset="0.176" style="stop-color:#37A19C"/>
			<stop  offset="0.301" style="stop-color:#317976"/>
			<stop  offset="0.429" style="stop-color:#2C5957"/>
			<stop  offset="0.559" style="stop-color:#283F3F"/>
			<stop  offset="0.694" style="stop-color:#252D2E"/>
			<stop  offset="0.837" style="stop-color:#242223"/>
			<stop  offset="1" style="stop-color:#231F20"/>
		</linearGradient>
		<polygon class="st22" points="207.62,166.89 190.39,156.94 207.62,146.99 224.85,156.94 		"/>
		<linearGradient id="SVGID_7_" gradientUnits="userSpaceOnUse" x1="190.3925" y1="171.86" x2="207.6232" y2="171.86">
			<stop  offset="0" style="stop-color:#42E8E0"/>
			<stop  offset="0.056" style="stop-color:#3ED0C9"/>
			<stop  offset="0.176" style="stop-color:#37A19C"/>
			<stop  offset="0.301" style="stop-color:#317976"/>
			<stop  offset="0.429" style="stop-color:#2C5957"/>
			<stop  offset="0.559" style="stop-color:#283F3F"/>
			<stop  offset="0.694" style="stop-color:#252D2E"/>
			<stop  offset="0.837" style="stop-color:#242223"/>
			<stop  offset="1" style="stop-color:#231F20"/>
		</linearGradient>
		<polygon class="st23" points="207.62,186.78 190.39,176.83 190.39,156.94 207.62,166.89 		"/>
	</g>
	<polygon class="st5" points="201.42,176.03 196.6,173.25 196.6,167.69 201.42,170.47 	"/>
</g>
<g>
	<g>
		<polygon class="st20" points="92.77,363.46 75.54,353.51 92.77,343.56 110,353.51 		"/>
		<linearGradient id="SVGID_8_" gradientUnits="userSpaceOnUse" x1="92.769" y1="335.9048" x2="109.9997" y2="335.9048">
			<stop  offset="0" style="stop-color:#42E8E0"/>
			<stop  offset="0.056" style="stop-color:#3ED0C9"/>
			<stop  offset="0.176" style="stop-color:#37A19C"/>
			<stop  offset="0.301" style="stop-color:#317976"/>
			<stop  offset="0.429" style="stop-color:#2C5957"/>
			<stop  offset="0.559" style="stop-color:#283F3F"/>
			<stop  offset="0.694" style="stop-color:#252D2E"/>
			<stop  offset="0.837" style="stop-color:#242223"/>
			<stop  offset="1" style="stop-color:#231F20"/>
		</linearGradient>
		<polygon class="st24" points="110,340.88 92.77,350.83 92.77,330.93 110,320.98 		"/>
		<linearGradient id="SVGID_9_" gradientUnits="userSpaceOnUse" x1="75.5383" y1="320.9831" x2="109.9993" y2="320.9831">
			<stop  offset="0" style="stop-color:#42E8E0"/>
			<stop  offset="0.056" style="stop-color:#3ED0C9"/>
			<stop  offset="0.176" style="stop-color:#37A19C"/>
			<stop  offset="0.301" style="stop-color:#317976"/>
			<stop  offset="0.429" style="stop-color:#2C5957"/>
			<stop  offset="0.559" style="stop-color:#283F3F"/>
			<stop  offset="0.694" style="stop-color:#252D2E"/>
			<stop  offset="0.837" style="stop-color:#242223"/>
			<stop  offset="1" style="stop-color:#231F20"/>
		</linearGradient>
		<polygon class="st25" points="92.77,330.93 75.54,320.98 92.77,311.04 110,320.98 		"/>
		<linearGradient id="SVGID_10_" gradientUnits="userSpaceOnUse" x1="75.5383" y1="335.9048" x2="92.769" y2="335.9048">
			<stop  offset="0" style="stop-color:#42E8E0"/>
			<stop  offset="0.056" style="stop-color:#3ED0C9"/>
			<stop  offset="0.176" style="stop-color:#37A19C"/>
			<stop  offset="0.301" style="stop-color:#317976"/>
			<stop  offset="0.429" style="stop-color:#2C5957"/>
			<stop  offset="0.559" style="stop-color:#283F3F"/>
			<stop  offset="0.694" style="stop-color:#252D2E"/>
			<stop  offset="0.837" style="stop-color:#242223"/>
			<stop  offset="1" style="stop-color:#231F20"/>
		</linearGradient>
		<polygon class="st26" points="92.77,350.83 75.54,340.88 75.54,320.98 92.77,330.93 		"/>
	</g>
	<polygon class="st5" points="86.56,340.08 81.74,337.3 81.74,331.73 86.56,334.51 	"/>
</g>
<path class="st20" d="M165.67,353.62l-66.85-38.59c-1.5-0.87-1.5-3.04,0-3.9l63.56-36.69l71.12,41.06c1.5,0.87,1.5,3.04,0,3.9
	l-59.29,34.23C171.57,355.14,168.31,355.14,165.67,353.62z"/>
<g>
	<g>
		<path class="st3" d="M163.74,247.67c0-4.24-2.99-5.97-6.66-3.86l-62.52,36.02c-1.01,0.58-1.83,2-1.83,3.17s0.82,1.64,1.83,1.06
			l62.52-36.02c1.66-0.96,3.01-0.18,3.01,1.74l-0.01,6.99c1.21-0.08,2.43-0.08,3.66-0.06L163.74,247.67z"/>
		<path class="st3" d="M94.53,296.63l62.52-22.78c3.68-2.12,6.67-7.3,6.68-11.54l0.01-5.6c-1.23-0.02-2.45-0.02-3.66,0.06
			l-0.01,7.65c0,1.91-1.35,4.25-3.01,5.21L94.54,292.4c-1.01,0.58-1.83,2-1.83,3.17C92.7,296.74,93.52,297.21,94.53,296.63z"/>
	</g>
	<polygon class="st3" points="93.18,297.16 169.23,341.17 233.62,302.76 238.73,295.14 238.2,297.84 236.83,290.77 117.3,295.33 
		96.24,293.97 	"/>
	<polygon class="st27" points="95.7,283.43 95.68,292.8 169.18,335.32 171.17,326.4 	"/>
	<polygon class="st6" points="237.78,287.32 161.85,243.39 93.39,283.2 93.25,284.18 169.29,328.17 	"/>
	<g>
		<path class="st5" d="M213.58,309.88l17.85-10.59c1.5-1.06,2.68-3.19,2.69-4.98l0.01-1.4c0-1.13-0.47-1.87-1.2-2.08l-35.14,19.55
			l-28.62,15.48l0.03,9.47L213.58,309.88z"/>
	</g>
	<path class="st3" d="M171.72,326.72l-75.45-43.65l-1.6-0.93l-1.46-0.85c-0.3,0.55-0.49,1.15-0.49,1.7c0,0.57,0.2,0.98,0.52,1.17
		l0,0l0.01,0.01l0.01,0l76.03,43.98L171.72,326.72z"/>
	<polygon class="st5" points="168.28,340.17 169.23,340.72 169.41,340.42 168.82,339.96 	"/>
	<polygon class="st5" points="168.31,327.6 169.28,328.16 169.04,327.63 	"/>
	<g>
		<path class="st3" d="M170.6,323.83l62.52-36.02c3.68-2.12,6.67-0.39,6.66,3.85l-0.01,1.4c0,4.24-3,9.42-6.68,11.54l-62.52,36.02
			c-1.01,0.58-1.83,0.11-1.83-1.06c0-1.17,0.82-2.59,1.83-3.17l62.52-36.02c1.66-0.96,3.01-3.29,3.01-5.21l0.01-1.4
			c0-1.91-1.35-2.69-3.01-1.74l-62.52,36.02c-1.01,0.58-1.83,0.11-1.83-1.06C168.77,325.83,169.59,324.41,170.6,323.83z"/>
	</g>
	<g>
		<path class="st5" d="M168.75,339.57c0-1.17,0.82-2.59,1.83-3.17l62.52-36.02c1.66-0.96,3.01-3.29,3.01-5.21l0.01-1.4
			c0-1.25-0.58-2.02-1.44-2.13c0.28,0.37,0.44,0.89,0.44,1.55l-0.01,1.4c0,1.91-1.35,4.25-3.01,5.2l-62.52,36.02
			c-1.01,0.58-1.83,2-1.83,3.17c0,0.88,0.47,1.37,1.14,1.3C168.8,340.09,168.75,339.85,168.75,339.57z"/>
		<path class="st5" d="M168.77,327c0-1.17,0.82-2.59,1.83-3.17l62.52-36.02c1.58-0.91,3.04-1.11,4.18-0.7
			c-1.22-1.04-3.09-1.09-5.18,0.12l-62.52,36.02c-1.01,0.58-1.83,2-1.83,3.17c0,0.88,0.47,1.37,1.14,1.3
			C168.82,327.52,168.77,327.28,168.77,327z"/>
	</g>
	<polygon class="st5" points="139.86,288.18 174.35,268.31 204.27,285.62 169.77,305.49 	"/>
</g>
<g>
	<path class="st19" d="M225.16,384.31c13.81,7.97,36.2,7.97,50.01,0c13.81-7.97,13.81-20.9,0-28.87c-13.81-7.97-36.2-7.97-50.01,0
		C211.35,363.41,211.35,376.34,225.16,384.31z M238.67,363.24c6.35-3.67,16.64-3.67,22.99,0c6.35,3.67,6.35,9.61,0,13.27
		c-6.35,3.67-16.64,3.67-22.99,0C232.33,372.84,232.33,366.9,238.67,363.24z"/>
	<g>
		<g>
			<path class="st3" d="M280.39,350.71l-12.61,0.2c-0.93-1.21-2.26-2.35-3.98-3.35c-6.94-4-17.84-4.31-25.4-0.93l-7.5-7.05
				l-11.54,0.18c0.57-0.37,1.16-0.74,1.77-1.1c16.04-9.26,42.04-9.26,58.08,0c2.95,1.7,5.35,3.6,7.22,5.62L280.39,350.71z"/>
			<polygon class="st2" points="219.35,321.44 219.35,339.75 230.89,339.57 230.89,321.26 			"/>
			<polygon class="st3" points="238.39,328.31 238.39,346.62 230.89,339.57 230.89,321.26 			"/>
			<path class="st3" d="M267.78,332.59v18.32l-16.59-13.52l-12.79,9.24v-18.32l11.78-5.71c0,0,16.21,4.96,17.06,5.17
				C268.07,327.98,267.78,332.59,267.78,332.59z"/>
			<polygon class="st3" points="280.39,332.39 280.39,350.71 267.78,350.91 267.78,332.59 			"/>
			<polygon class="st2" points="286.43,325.96 286.43,344.28 280.39,350.71 280.39,332.39 			"/>
			<path class="st6" d="M280.39,332.39l-12.61,0.2c-0.93-1.21-2.26-2.35-3.98-3.35c-6.94-4-17.84-4.31-25.4-0.93l-7.5-7.05
				l-11.54,0.18c0.57-0.37,1.16-0.74,1.77-1.1c16.04-9.26,42.04-9.26,58.08,0c2.95,1.7,5.35,3.6,7.22,5.62L280.39,332.39z"/>
		</g>
		<g>
			<path class="st2" d="M234.59,330.56v16.84l-10.92-2.62c0,0,0.64-9.85,0.87-10.12C224.78,334.4,234.59,330.56,234.59,330.56z"/>
			<g>
				<path class="st3" d="M242.85,347.4v18.32l-1.18,1.26l-7.7-4.44c0,0,1.19-13.98,1.33-14.26
					C235.45,347.99,242.85,347.4,242.85,347.4z"/>
				<path class="st6" d="M227.99,342.67l6.6,6.21c-5.5,4.35-4.85,10.48,1.95,14.41c1.86,1.08,4.01,1.88,6.31,2.43l-6.82,7.27
					l6.05,5.69c-7.68-0.89-15-3.04-20.95-6.48c-13.79-7.96-15.71-20.17-5.79-29.32L227.99,342.67z"/>
				<polygon class="st6" points="242.08,360.35 242.08,378.67 227.11,372.89 209.1,355.71 209.17,336.26 228.22,351.36 				"/>
				<path class="st28" d="M227.99,324.35l6.6,6.21c-5.5,4.35-4.85,10.48,1.95,14.41c1.86,1.08,4.01,1.88,6.31,2.43l-6.82,7.27
					l6.05,5.69c-7.68-0.89-15-3.04-20.95-6.48c-13.79-7.96-15.71-20.17-5.79-29.32L227.99,324.35z"/>
			</g>
		</g>
		<g>
			<path class="st3" d="M242.13,372.89l6.01-6.41c5.58,0.34,11.37-0.72,15.65-3.19c4.42-2.55,6.24-6.03,5.47-9.35l14.32-0.22
				l5.51-5.87c4.82,8.27,1.53,17.76-9.88,24.35c-8.38,4.84-19.48,7.14-30.46,6.93L242.13,372.89z"/>
			<polygon class="st3" points="248.75,360.8 248.75,379.12 291.23,355.57 291.23,337.25 285.03,339.75 			"/>
			<polygon class="st2" points="242.13,354.57 242.13,372.89 248.75,379.12 248.75,360.8 			"/>
			<path class="st29" d="M242.13,354.57l6.01-6.41c5.58,0.34,11.37-0.72,15.65-3.19c4.42-2.55,6.24-6.03,5.47-9.35l14.32-0.22
				l5.51-5.87c4.82,8.27,1.53,17.76-9.88,24.35c-8.38,4.84-19.48,7.14-30.46,6.93L242.13,354.57z"/>
		</g>
	</g>
</g>
</svg>
