<?xml version="1.0" encoding="utf-8"?>
<!-- Generator: Adobe Illustrator 23.0.0, SVG Export Plug-In . SVG Version: 6.00 Build 0)  -->
<svg version="1.1" id="Ñëîé_1" xmlns="http://www.w3.org/2000/svg" xmlns:xlink="http://www.w3.org/1999/xlink" x="0px" y="0px"
	 viewBox="0 0 371.59 329.48" style="enable-background:new 0 0 371.59 329.48;" xml:space="preserve">
<style type="text/css">
	.st0{fill:#111111;}
	.st1{fill:#42E8E0;}
	.st2{opacity:0.5;fill:url(#SVGID_1_);}
	.st3{opacity:0.5;fill:url(#SVGID_2_);}
	.st4{fill:#110F10;}
	.st5{fill:#24126A;}
	.st6{fill:url(#SVGID_3_);}
	.st7{fill:url(#SVGID_4_);}
	.st8{fill:url(#SVGID_5_);}
	.st9{fill:#231F20;}
	.st10{fill:#E5E5E5;}
	.st11{fill:url(#SVGID_6_);}
	.st12{fill:#F0F6FF;}
	.st13{fill:#515151;}
	.st14{fill:#7F7F7F;}
	.st15{fill:#2D2D2D;}
	.st16{fill:#4C4C4C;}
	.st17{fill:#160A5B;}
	.st18{fill:#FCD1C5;}
	.st19{fill:#C4CCD6;}
	.st20{fill:#E2B1A6;}
	.st21{fill:#AA8383;}
	.st22{fill:#936D6D;}
	.st23{fill:#263649;}
	.st24{clip-path:url(#SVGID_8_);fill:#334659;}
	.st25{clip-path:url(#SVGID_8_);fill:#263649;}
	.st26{fill:url(#SVGID_9_);}
	.st27{opacity:0.5;fill:url(#SVGID_10_);}
	.st28{fill:url(#SVGID_11_);}
	.st29{fill:#FFFFFF;}
	.st30{opacity:0.3;fill:#180D5B;}
	.st31{fill:#262223;}
	.st32{opacity:0.63;fill:#2D2D2D;}
	.st33{opacity:0.6;}
</style>
<rect x="-6.62" y="-7.34" class="st0" width="384" height="344.28"/>
<g>
	<g>
		<path class="st1" d="M359.34,218.8l-18.67-10.45c-4.19-2.34-7.87-7.51-9.16-12.85l-16.17-66.8c-1.91-7.9-8.26-13.6-12.77-13.77
			c-2.25-0.09-3.87,1.14-4.65,3.56l-4.87,14.97c-0.56,1.73-1.63,2.94-3.07,3.5c-1.74,0.67-3.94,0.33-6.19-0.97l-3.37-1.95
			c-3.96-2.29-7.44-7.05-8.86-12.14c-2.13-7.64-8.04-12.77-12.3-13.13c-2.11-0.19-3.72,0.77-4.65,2.75l-5.35,11.33
			c-0.66,1.39-1.7,2.34-3.03,2.76c-1.69,0.53-3.79,0.15-5.9-1.07l-3.86-2.23c-4.23-2.45-7.89-7.7-9.09-13.07l-16.16-72.16
			c-1.77-7.92-8.1-13.77-12.68-14.06c-2.24-0.13-3.88,1-4.73,3.31l-26.24,71.7c-0.59,1.63-1.65,2.76-3.06,3.27
			c-1.73,0.63-3.9,0.27-6.11-1l-13.27-7.66l0.22-0.38l13.27,7.66c2.09,1.21,4.13,1.55,5.73,0.97c1.28-0.46,2.25-1.5,2.8-3
			l26.24-71.7c0.91-2.48,2.74-3.76,5.18-3.6c4.73,0.31,11.27,6.3,13.08,14.41l16.16,72.16c1.16,5.18,4.81,10.44,8.88,12.79
			l3.86,2.23c2,1.16,3.97,1.53,5.54,1.03c1.2-0.38,2.16-1.25,2.76-2.52l5.35-11.33c1-2.13,2.81-3.2,5.09-3
			c4.41,0.37,10.51,5.63,12.7,13.45c1.36,4.9,4.84,9.67,8.65,11.87l3.37,1.95c2.13,1.23,4.19,1.56,5.8,0.94
			c1.32-0.5,2.29-1.62,2.81-3.22l4.87-14.97c0.84-2.59,2.67-3.95,5.09-3.87c4.76,0.18,11.2,5.9,13.18,14.11l16.17,66.8
			c1.27,5.23,4.86,10.28,8.95,12.56l18.67,10.45L359.34,218.8z"/>
		<path class="st1" d="M345.17,226.95l-18.67-10.45c-4.19-2.35-7.87-7.51-9.16-12.85l-16.17-66.8c-1.91-7.9-8.26-13.6-12.77-13.77
			c-2.27-0.08-3.87,1.15-4.66,3.56l-4.87,14.97c-0.56,1.73-1.63,2.94-3.07,3.5c-1.75,0.67-3.94,0.33-6.19-0.97l-3.37-1.94
			c-3.9-2.25-7.46-7.13-8.86-12.14c-2.13-7.65-8.04-12.77-12.3-13.13c-2.11-0.18-3.71,0.77-4.65,2.75l-5.35,11.33
			c-0.66,1.39-1.7,2.34-3.03,2.76c-1.69,0.53-3.79,0.15-5.9-1.07l-3.86-2.23c-4.23-2.44-7.89-7.7-9.09-13.07l-16.16-72.16
			c-1.77-7.92-8.1-13.77-12.68-14.07c-2.24-0.13-3.88,1-4.73,3.31l-26.24,71.7c-0.59,1.63-1.65,2.76-3.06,3.27
			c-1.73,0.63-3.9,0.27-6.11-1l-13.27-7.66l0.22-0.39l13.27,7.66c2.09,1.21,4.12,1.55,5.73,0.97c1.28-0.46,2.25-1.5,2.8-3
			l26.24-71.7c0.91-2.48,2.76-3.76,5.18-3.6c4.73,0.31,11.27,6.3,13.08,14.41l16.16,72.16c1.16,5.18,4.81,10.44,8.88,12.78
			l3.86,2.23c2,1.16,3.98,1.52,5.55,1.03c1.2-0.38,2.16-1.25,2.76-2.52l5.35-11.33c1-2.13,2.81-3.19,5.09-3
			c4.41,0.38,10.51,5.63,12.69,13.46c1.36,4.9,4.84,9.67,8.65,11.87l3.37,1.94c2.13,1.23,4.19,1.56,5.81,0.94
			c1.32-0.5,2.29-1.62,2.81-3.22l4.87-14.97c0.84-2.59,2.68-3.96,5.1-3.87c4.76,0.18,11.19,5.9,13.18,14.11l16.17,66.8
			c1.26,5.23,4.86,10.27,8.95,12.56l18.67,10.45L345.17,226.95z"/>
		
			<rect x="180.52" y="27.22" transform="matrix(0.8667 -0.4989 0.4989 0.8667 11.4786 97.8264)" class="st1" width="16.48" height="0.45"/>
		
			<rect x="240.76" y="113.13" transform="matrix(0.8666 -0.4991 0.4991 0.8666 -23.3303 139.4399)" class="st1" width="16.68" height="0.45"/>
		<polygon class="st1" points="285.55,123.9 285.33,123.51 300.39,114.87 300.62,115.25 		"/>
		<path class="st1" d="M359.34,218.8l-18.67-10.45c-4.19-2.34-7.87-7.51-9.16-12.85l-16.17-66.8c-1.91-7.9-8.26-13.6-12.77-13.77
			c-2.25-0.09-3.87,1.14-4.65,3.56l-4.87,14.97c-0.56,1.73-1.63,2.94-3.07,3.5c-1.74,0.67-3.94,0.33-6.19-0.97l-3.37-1.95
			c-3.96-2.29-7.44-7.05-8.86-12.14c-2.13-7.64-8.04-12.77-12.3-13.13c-2.11-0.19-3.72,0.77-4.65,2.75l-5.35,11.33
			c-0.66,1.39-1.7,2.34-3.03,2.76c-1.69,0.53-3.79,0.15-5.9-1.07l-3.86-2.23c-4.23-2.45-7.89-7.7-9.09-13.07l-16.16-72.16
			c-1.77-7.92-8.1-13.77-12.68-14.06c-2.24-0.13-3.88,1-4.73,3.31l-26.24,71.7c-0.59,1.63-1.65,2.76-3.06,3.27
			c-1.73,0.63-3.9,0.27-6.11-1l-13.27-7.66l0.22-0.38l13.27,7.66c2.09,1.21,4.13,1.55,5.73,0.97c1.28-0.46,2.25-1.5,2.8-3
			l26.24-71.7c0.91-2.48,2.74-3.76,5.18-3.6c4.73,0.31,11.27,6.3,13.08,14.41l16.16,72.16c1.16,5.18,4.81,10.44,8.88,12.79
			l3.86,2.23c2,1.16,3.97,1.53,5.54,1.03c1.2-0.38,2.16-1.25,2.76-2.52l5.35-11.33c1-2.13,2.81-3.2,5.09-3
			c4.41,0.37,10.51,5.63,12.7,13.45c1.36,4.9,4.84,9.67,8.65,11.87l3.37,1.95c2.13,1.23,4.19,1.56,5.8,0.94
			c1.32-0.5,2.29-1.62,2.81-3.22l4.87-14.97c0.84-2.59,2.67-3.95,5.09-3.87c4.76,0.18,11.2,5.9,13.18,14.11l16.17,66.8
			c1.27,5.23,4.86,10.28,8.95,12.56l18.67,10.45L359.34,218.8z"/>
		<path class="st1" d="M345.17,226.95l-18.67-10.45c-4.19-2.35-7.87-7.51-9.16-12.85l-16.17-66.8c-1.91-7.9-8.26-13.6-12.77-13.77
			c-2.27-0.08-3.87,1.15-4.66,3.56l-4.87,14.97c-0.56,1.73-1.63,2.94-3.07,3.5c-1.75,0.67-3.94,0.33-6.19-0.97l-3.37-1.94
			c-3.9-2.25-7.46-7.13-8.86-12.14c-2.13-7.65-8.04-12.77-12.3-13.13c-2.11-0.18-3.71,0.77-4.65,2.75l-5.35,11.33
			c-0.66,1.39-1.7,2.34-3.03,2.76c-1.69,0.53-3.79,0.15-5.9-1.07l-3.86-2.23c-4.23-2.44-7.89-7.7-9.09-13.07l-16.16-72.16
			c-1.77-7.92-8.1-13.77-12.68-14.07c-2.24-0.13-3.88,1-4.73,3.31l-26.24,71.7c-0.59,1.63-1.65,2.76-3.06,3.27
			c-1.73,0.63-3.9,0.27-6.11-1l-13.27-7.66l0.22-0.39l13.27,7.66c2.09,1.21,4.12,1.55,5.73,0.97c1.28-0.46,2.25-1.5,2.8-3
			l26.24-71.7c0.91-2.48,2.76-3.76,5.18-3.6c4.73,0.31,11.27,6.3,13.08,14.41l16.16,72.16c1.16,5.18,4.81,10.44,8.88,12.78
			l3.86,2.23c2,1.16,3.98,1.52,5.55,1.03c1.2-0.38,2.16-1.25,2.76-2.52l5.35-11.33c1-2.13,2.81-3.19,5.09-3
			c4.41,0.38,10.51,5.63,12.69,13.46c1.36,4.9,4.84,9.67,8.65,11.87l3.37,1.94c2.13,1.23,4.19,1.56,5.81,0.94
			c1.32-0.5,2.29-1.62,2.81-3.22l4.87-14.97c0.84-2.59,2.68-3.96,5.1-3.87c4.76,0.18,11.19,5.9,13.18,14.11l16.17,66.8
			c1.26,5.23,4.86,10.27,8.95,12.56l18.67,10.45L345.17,226.95z"/>
	</g>
	<linearGradient id="SVGID_1_" gradientUnits="userSpaceOnUse" x1="145.2523" y1="120.6895" x2="359.4506" y2="120.6895">
		<stop  offset="0" style="stop-color:#42E8E0"/>
		<stop  offset="0.0557" style="stop-color:#3ED0C9"/>
		<stop  offset="0.1763" style="stop-color:#37A19C"/>
		<stop  offset="0.3012" style="stop-color:#317976"/>
		<stop  offset="0.4286" style="stop-color:#2C5957"/>
		<stop  offset="0.5592" style="stop-color:#283F3F"/>
		<stop  offset="0.6944" style="stop-color:#252D2E"/>
		<stop  offset="0.8372" style="stop-color:#242223"/>
		<stop  offset="1" style="stop-color:#231F20"/>
	</linearGradient>
	<path class="st2" d="M145.25,92.43l13.27,7.66c3.99,2.3,7.54,1.44,8.85-2.15l26.24-71.7c3-8.19,15.24-0.79,17.83,10.78l16.16,72.16
		c1.18,5.27,4.84,10.53,8.98,12.93l3.86,2.23c3.75,2.17,7.14,1.54,8.62-1.59l5.35-11.33c3.31-7.02,14.36-0.4,17.37,10.42l0,0
		c1.39,4.99,4.87,9.76,8.75,12l3.37,1.95c4.09,2.36,7.7,1.39,8.94-2.4l4.87-14.97c2.75-8.45,15.03-1.41,17.85,10.22l16.17,66.8
		c1.27,5.25,4.94,10.4,9.06,12.71l18.67,10.45L145.25,92.43z"/>
	<linearGradient id="SVGID_2_" gradientUnits="userSpaceOnUse" x1="131.0846" y1="128.6265" x2="345.2828" y2="128.6265">
		<stop  offset="0" style="stop-color:#42E8E0"/>
		<stop  offset="0.0557" style="stop-color:#3ED0C9"/>
		<stop  offset="0.1763" style="stop-color:#37A19C"/>
		<stop  offset="0.3012" style="stop-color:#317976"/>
		<stop  offset="0.4286" style="stop-color:#2C5957"/>
		<stop  offset="0.5592" style="stop-color:#283F3F"/>
		<stop  offset="0.6944" style="stop-color:#252D2E"/>
		<stop  offset="0.8372" style="stop-color:#242223"/>
		<stop  offset="1" style="stop-color:#231F20"/>
	</linearGradient>
	<path class="st3" d="M131.08,100.37l13.27,7.66c3.99,2.3,7.54,1.44,8.85-2.15l26.24-71.7c3-8.19,15.24-0.79,17.83,10.78
		l16.16,72.16c1.18,5.27,4.84,10.53,8.98,12.93l3.86,2.23c3.75,2.17,7.14,1.54,8.62-1.59l5.35-11.33
		c3.31-7.02,14.36-0.4,17.37,10.42h0c1.39,4.99,4.87,9.76,8.75,12l3.37,1.95c4.09,2.36,7.7,1.39,8.94-2.4l4.87-14.97
		c2.75-8.45,15.03-1.41,17.85,10.22l16.17,66.8c1.27,5.25,4.94,10.4,9.06,12.71l18.67,10.45L131.08,100.37z"/>
</g>
<path class="st1" d="M220.43,285.75c-1.92,0-3.85-0.5-5.57-1.49L89.2,211.73c-1.32-0.76-2.11-2.13-2.11-3.65
	c0-1.52,0.78-2.89,2.1-3.66l77.29-44.88l0.1,0.06l131.14,75.69c1.32,0.76,2.11,2.13,2.11,3.65c0,1.52-0.78,2.89-2.1,3.66
	l-71.72,41.64C224.3,285.25,222.36,285.75,220.43,285.75z M215.07,283.9c3.32,1.91,7.43,1.91,10.74-0.01l71.72-41.64
	c1.19-0.69,1.89-1.92,1.89-3.29c0-1.37-0.71-2.6-1.9-3.29l-131.03-75.63L89.4,204.79c-1.19,0.69-1.89,1.92-1.89,3.29
	c0,1.37,0.71,2.6,1.9,3.29L215.07,283.9z"/>
<g>
	<g>
		<g>
			<path class="st4" d="M229.86,250.13c0,1.9-1.54,3.44-3.44,3.44c-1.9,0-3.44-1.54-3.44-3.44c0-1.9,1.54-3.44,3.44-3.44
				C228.32,246.69,229.86,248.23,229.86,250.13z"/>
			<path class="st5" d="M263.73,211.7c0,1.9-1.54,3.44-3.44,3.44s-3.44-1.54-3.44-3.44c0-1.9,1.54-3.44,3.44-3.44
				S263.73,209.8,263.73,211.7z"/>
			<path class="st4" d="M271.13,237.96c0,1.9-1.54,3.44-3.44,3.44c-1.9,0-3.44-1.54-3.44-3.44c0-1.9,1.54-3.44,3.44-3.44
				C269.59,234.52,271.13,236.06,271.13,237.96z"/>
			<g>
				<path class="st4" d="M196.82,231.48c0,1.9-1.54,3.44-3.44,3.44c-1.9,0-3.44-1.54-3.44-3.44c0-1.9,1.54-3.44,3.44-3.44
					C195.28,228.04,196.82,229.58,196.82,231.48z"/>
				<path class="st5" d="M218.08,208.25c0,1.9-1.54,3.44-3.44,3.44c-1.9,0-3.44-1.54-3.44-3.44c0-1.9,1.54-3.44,3.44-3.44
					C216.54,204.81,218.08,206.35,218.08,208.25z"/>
				<g>
					<linearGradient id="SVGID_3_" gradientUnits="userSpaceOnUse" x1="230.8862" y1="221.1422" x2="168.5848" y2="236.3476">
						<stop  offset="0" style="stop-color:#5761D7"/>
						<stop  offset="0.1779" style="stop-color:#5C66D9"/>
						<stop  offset="0.3876" style="stop-color:#6A73DF"/>
						<stop  offset="0.6134" style="stop-color:#8289E8"/>
						<stop  offset="0.849" style="stop-color:#A3A7F5"/>
						<stop  offset="1" style="stop-color:#BCBEFF"/>
					</linearGradient>
					<path class="st6" d="M231.3,220.98l-37.81,7.28c-0.16,0.01-0.32,0.04-0.46,0.07l0.03-0.25l-1.82-0.46v2.15l0.01,0
						c0,0.08,0,0.17,0.02,0.25c0.23,0.84,1.6,1.41,3.05,1.28l37.81-7.28L231.3,220.98z"/>
					<linearGradient id="SVGID_4_" gradientUnits="userSpaceOnUse" x1="231.3513" y1="215.5811" x2="300.3228" y2="215.5811">
						<stop  offset="0" style="stop-color:#5761D7"/>
						<stop  offset="0.1779" style="stop-color:#5C66D9"/>
						<stop  offset="0.3876" style="stop-color:#6A73DF"/>
						<stop  offset="0.6134" style="stop-color:#8289E8"/>
						<stop  offset="0.849" style="stop-color:#A3A7F5"/>
						<stop  offset="1" style="stop-color:#BCBEFF"/>
					</linearGradient>
					<path class="st7" d="M262.97,208.01l-1.15,0.97c-0.99-0.43-2.51-0.33-3.54,0.26l-26.93,11.72l3.77,2.18l26.93-11.72
						c0.63-0.36,0.93-0.83,0.91-1.28l0.01,0V208.01z"/>
					<linearGradient id="SVGID_5_" gradientUnits="userSpaceOnUse" x1="223.5758" y1="214.0953" x2="207.4548" y2="198.5122">
						<stop  offset="0" style="stop-color:#5761D7"/>
						<stop  offset="0.1779" style="stop-color:#5C66D9"/>
						<stop  offset="0.3876" style="stop-color:#6A73DF"/>
						<stop  offset="0.6134" style="stop-color:#8289E8"/>
						<stop  offset="0.849" style="stop-color:#A3A7F5"/>
						<stop  offset="1" style="stop-color:#BCBEFF"/>
					</linearGradient>
					<path class="st8" d="M217.19,205.4c-0.67-0.76-2.27-1.06-3.59-0.67l0,0c-0.16,0.05-0.3,0.1-0.43,0.16
						c-0.06-0.1-0.14-0.21-0.23-0.31c-0.24-0.24-0.79-0.57-0.79-0.57l0,2.14c0,0,0.01-0.01,0.01-0.01c0.01,0.22,0.1,0.44,0.28,0.65
						l17.38,15.87l4.75-1.4L217.19,205.4z"/>
					<path class="st9" d="M270.18,234.33l-0.64,0.22l-0.37,0.76c-0.14-0.06-0.29-0.12-0.45-0.17l-34.11-13.86l-2.42,2.74
						l34.11,13.86c1.31,0.39,2.92,0.08,3.59-0.67v0c0.2-0.23,0.28-0.47,0.28-0.71l0.01,0.01L270.18,234.33z"/>
					<path class="st9" d="M229.83,222.69l-5.6,24l-0.42-0.21l0,2.22l0.01-0.01c0.08,0.7,0.98,1.31,2.24,1.42
						c1.45,0.13,2.82-0.44,3.05-1.28l5.99-25.66L229.83,222.69z"/>
					<path class="st10" d="M268.72,233.01l-31.63-12.85l24.96-10.87c1.12-0.65,1.24-1.62,0.27-2.18l-0.26-0.15
						c-0.97-0.56-2.66-0.49-3.78,0.16l-24.96,10.87l-16.12-14.72c-0.67-0.76-2.27-1.06-3.59-0.67l0,0
						c-1.31,0.39-1.83,1.31-1.16,2.07l16.12,14.72l-35.07,6.75c-1.45,0.13-2.45,0.92-2.22,1.76c0.23,0.84,1.6,1.41,3.05,1.28
						l35.07-6.75l-5.55,23.8c-0.23,0.84,0.76,1.63,2.22,1.76c1.45,0.13,2.82-0.44,3.05-1.28l5.55-23.8l31.64,12.85
						c1.31,0.39,2.92,0.08,3.59-0.67C270.55,234.32,270.03,233.4,268.72,233.01z M233.7,220.19l-0.59,0.67l-1.28-0.12l-0.2-0.74
						l1.16-0.34L233.7,220.19z"/>
				</g>
				<path class="st5" d="M232.6,222.16L232.6,222.16c-1.52,0-2.76-1.24-2.76-2.76v-31.94h5.52v31.94
					C235.36,220.92,234.13,222.16,232.6,222.16z"/>
			</g>
		</g>
		<linearGradient id="SVGID_6_" gradientUnits="userSpaceOnUse" x1="188.0667" y1="156.5357" x2="217.9312" y2="156.5357">
			<stop  offset="0.3548" style="stop-color:#D3C9CC"/>
			<stop  offset="0.4365" style="stop-color:#CDC2C5"/>
			<stop  offset="0.5523" style="stop-color:#BBB0B3"/>
			<stop  offset="0.6879" style="stop-color:#9D9194"/>
			<stop  offset="0.6975" style="stop-color:#9B8F92"/>
			<stop  offset="0.843" style="stop-color:#72686B"/>
			<stop  offset="0.8925" style="stop-color:#63595C"/>
		</linearGradient>
		<path class="st11" d="M217.93,149.52l-0.01,0c-0.07-0.72-0.53-1.4-1.43-1.92l-0.58-0.33c-2.14-1.24-5.88-1.08-8.36,0.35
			l-17.44,10.07c-1.31,0.76-2,1.72-2.04,2.64l-0.01,0v3.04l0.01,0c0,0.79,0.47,1.54,1.44,2.1l0.58,0.33
			c2.14,1.24,5.88,1.08,8.36-0.35l17.44-10.07c1.27-0.73,1.96-1.66,2.03-2.56l0.01-0.01V149.52z"/>
		<g>
			<path class="st12" d="M190.09,162.84l-0.58-0.33c-2.14-1.24-1.87-3.4,0.6-4.82l17.44-10.07c2.47-1.43,6.21-1.58,8.36-0.35
				l0.58,0.33c2.14,1.24,1.87,3.4-0.6,4.82l-17.44,10.07C195.97,163.92,192.23,164.08,190.09,162.84z"/>
		</g>
		<g>
			<path class="st13" d="M227.01,176.89l-36.52,21.07c-1.81,1.04-3.28-0.06-3.28-2.48l0,0c0-2.41,1.47-5.22,3.28-6.26l41.84-24.13
				v1.65C232.32,170.65,229.94,175.2,227.01,176.89z"/>
			<g>
				<path class="st14" d="M229.7,86.89L229.7,86.89c-1.27-0.68-2.9-0.59-4.69,0.44l-1.09,0.63c-4.04,2.33-7.31,8.59-7.31,13.97
					v72.23l9.7-5.6v2.29l-11.64,9.48l-26.44,17.73l37.16,21.01l21.37-16.44l12.17-10.39l7.58-84.53L229.7,86.89z"/>
			</g>
		</g>
		<path class="st15" d="M202.48,206.11c0,0-0.99-2.62,0.96-4.57c1.95-1.95,12.23-6.28,12.97-6.74c0.74-0.46,4.44-3.18,4.44-3.18
			l1.13-2.52c0,0-20.86,2.03-21.14,2.36c-0.28,0.33-9.76,8.83-9.48,9.2c0.28,0.37,6.54,1.89,6.54,1.89l1.21,1.65L202.48,206.11z"/>
		<path class="st16" d="M262.01,108.23l-1.09,0.63c-4.04,2.33-7.31,8.59-7.31,13.97v72.22l-26.12,15.07
			c-1.81,1.04-3.28,3.85-3.28,6.26v0c0,2.41,1.47,3.52,3.28,2.48L264,197.8c2.94-1.69,5.31-6.24,5.31-10.15v-1.65v-72.23
			C269.32,108.38,266.04,105.9,262.01,108.23z"/>
		<g>
			<g>
				<path class="st4" d="M192.59,221.76c0,0-5.38,3.45-7.2,5.49c-1.82,2.04-5.42,6.2-3.94,8.18c1.48,1.98,6.49,3.09,11.87-1.86
					c5.38-4.96,3.85-5.25,8.44-7.71c4.58-2.46,5.85-5.13,5.29-6.66c-0.55-1.53-2.82-4.23-4.05-3.65
					C201.77,216.13,192.59,221.76,192.59,221.76z"/>
				<path class="st4" d="M218.76,236.26c0,0-1.93,4.25-2.93,5.66s-5.82,9.54-3.3,11.41s7.3,1.35,11.07-2.75
					c3.78-4.1,4.62-9.09,5.55-10.73c0.93-1.64,3.25-6.01,2.15-8.54c-1.1-2.52-1.34-2.96-1.34-2.96L218.76,236.26z"/>
				<path class="st5" d="M199.22,175.72c0,0-15.99,15.78-18.61,23.7c0,0-1.11,4.28,1.98,7.64c3.09,3.36,9.65,14.33,9.65,14.33
					s4.9,5.93,11.22,1.19c0,0,2.86-4.57,1.1-7.61c-1.76-3.04-6.43-12.74-6.43-12.74s10.25-7.05,15.31-8.84
					c5.06-1.78,7.76-3.16,7.76-3.16s-0.92,4.77-4.62,9.43c-3.7,4.66-9.9,12.14-7.84,17.35c2.06,5.21,3.26,6.82,5.2,9.82
					c1.94,3,3.77,9.25,5.43,9.9c1.65,0.65,9.3,1.4,10.54-3.58c1.24-4.98-2.61-14.65-4.34-17.93c0,0,20.68-23.86,22.65-26.48
					C250.2,186.13,205.62,171.68,199.22,175.72z"/>
				<path class="st17" d="M204.58,214.97c-1.76-3.04-6.43-12.74-6.43-12.74s10.25-7.05,15.31-8.84c5.06-1.78,7.76-3.16,7.76-3.16
					c0.97-1.34,4.11-6.47,5.52-10.53c-11.66-3.42-24.32-5.99-27.51-3.98c1.13,2.79,7.07,2.77,7.07,2.77s2.22,5.4,3.69,6.09
					c1.47,0.69,5-0.07,5-0.07s-0.57,0.89-3.08,2.7c-2.51,1.81-18.25,14.7-18.25,14.7s0.9,0.51,5.09,8.08
					c4.19,7.57,4.73,12.56,4.73,12.56S206.33,218.01,204.58,214.97z"/>
				<path class="st17" d="M239.92,184.1c-9.24-0.88-20.01-0.96-17.59,3.89c4.11,8.23,12.38,8.6,12.38,8.6
					c-0.05,3.02-12.74,17.63-12.74,17.63s0,0,2.96,5.75s2.59,16.22,2.59,16.22c1.14-0.62,2.05-1.58,2.41-3.03
					c1.24-4.98-2.61-14.65-4.34-17.93c0,0,20.68-23.86,22.65-26.48C248.81,187.98,245.31,186.16,239.92,184.1z"/>
				<path class="st9" d="M183.06,133.67l2.46-1.91c0,0,13.26-7.36,17.67-9.75c2.39-1.29,4.87-3.6,6.64-5.45
					c1.73-1.8,4.12-2.8,6.61-2.82l23.22-0.12c0,0,2.71,4.33,3.62,5.19c0.67,0.63,6.97,5.91,11.49,10.26
					c2.5,2.41,4.32,5.42,5.27,8.76c2.59,9.12,2.55,27.5,2.94,40.64c0,0-1.6,0.62-5.58,1.47c-3.95,0.84-3.46,0.3-3.46,0.3
					s-5.93,13.33-13.96,14.62c-8.04,1.29-18.87-2.47-20.8-15.09c0,0-15.67-2.35-19.92-4.09c-0.39-0.16-0.53-0.64-0.27-0.98
					c1.9-2.52,8.96-12.27,9.63-18.62c0.78-7.34,0.54-18-0.04-20.92c0,0-11.82,4.45-15.59,5.24c0,0-14.39,15.81-20.4,20.11
					c0,0,2.06-3.24-2.08-5.43L183.06,133.67z"/>
				<path class="st4" d="M257.4,179.97c0.6-0.13,1.15-0.25,1.64-0.37l-0.84-1.64l-21.8-2.31l-12.73,0.66l-4.38,4.16
					c0.25,1.35,0.59,2.6,1.04,3.74c0.02,0,5.41,0.78,7.92,0.24c2.51-0.54,21.91,2.32,21.95,2.32c2.2-3.15,3.56-6.1,3.73-6.47
					C253.9,180.42,254.14,180.66,257.4,179.97z"/>
				<path class="st18" d="M227.98,172.35c-0.02-0.08-0.09-0.14-0.18-0.14c-1.05-0.03-7.86-0.23-10.44-1.12
					c-2.79-0.96-5.75-0.79-5.9-0.63c-0.15,0.16-4.8,2.14-5.08,2.94c-0.25,0.71-0.69,3.18-0.08,4.09c0.62,0.91,0.91,1.52,0.91,1.52
					l0.48,0.05c0,0,0.63,1.23,0.98,1.67c0.16,0.19,0.28,0.4,0.38,0.62c0.29,0.63,0.81,1.68,1.02,1.7c0.31,0.03,1.75,0.32,2.12,0.22
					c0.3-0.08,0.57-0.99,0.45-1.39c-0.03-0.11,0.02-0.21,0.14-0.23c0.66-0.11,2.46-0.34,4.95-0.11c3.03,0.28,7.32-1.7,7.7-1.89
					c0.02-0.01,0.04-0.01,0.06-0.02l4.27-0.39c0.12-0.01,0.2-0.13,0.17-0.25L227.98,172.35z"/>
				<path class="st12" d="M222.83,127.31c0,0-3.64,13.41,0.21,27.18c0,0,13.99-26.1,15.51-30.34c1.52-4.24,2.07-7.24,0.65-8.76
					c-1.42-1.52-14.06,6.34-14.06,6.34L222.83,127.31z"/>
				<path class="st19" d="M226.43,148.33c0,0,2.66-8.16,2.2-10.79c-0.46-2.63-1.13-4.52-1.13-4.52l2.4-2.22l1.06,2.2
					c0,0,5.29-3.88,5.64-4.6c0,0-4.26,2.92-5.6,3.36c0,0-0.63-1.05-1.47-1.4c-0.84-0.36-2.92,2.5-2.92,2.5l-0.39,4.95l-2.09,11.54
					l0.73,1.71L226.43,148.33z"/>
				<path class="st4" d="M224.09,127.47c0,0-0.51,5.27-0.07,5.64c0.44,0.37,2.07,0.4,2.83-0.03c0.76-0.42,2.69-2.72,2.69-2.72
					S227.18,126.19,224.09,127.47z"/>
				<path class="st4" d="M226.95,132.14c0,0,1.43,3.66,0.06,8.71c-1.37,5.05-1.89,9.75-1.89,9.75l-2.08,3.9
					c0,0-2.59-7.63-1.74-15.29c0.38-3.44,3.01-6.49,3.01-6.49L226.95,132.14z"/>
				<path class="st18" d="M216.29,105.94c0,0-0.64,3.26-0.41,3.88c0.23,0.62,1.06,1.03,0.86,2.3c-0.2,1.27,0.53,5.07,0.91,6.33
					c0,0-0.28,1.35,0.1,1.77c0.38,0.42,0.87,0.4,1.23,1.04c0.36,0.64,0.48,3.93,1.81,5.03c1.33,1.1,3.07,1.33,3.96,1.09
					c0.89-0.24,1.81-0.92,1.81-0.92l2.01,0.84c0,0,10.4-2.95,10.08-10.26l-0.01-0.77c0,0,0.74-1.03,0.95-1.71
					c0.21-0.68,1.94-3.72,1.07-5.03c0,0,4.03-15.91-8.4-16.87C219.82,91.69,217.95,100.41,216.29,105.94z"/>
				<path class="st20" d="M238.65,117.04l0-0.09c-0.52-0.31-1.03-0.51-1.43-0.43c-1.42,0.25-1.1-2.7-1.1-2.7s-0.26,0.54-0.99,4.31
					c-0.73,3.77-8.57,8.34-8.57,8.34l2.01,0.84C228.57,127.3,238.97,124.35,238.65,117.04z"/>
				<path class="st21" d="M216.35,99.03c-1.22,2.58-1.8,5.68,0.75,7.77c0,0,2.14,0.58,6.2-1.3c2.74-1.27,5.47-0.71,6.97-0.21
					c0.69,0.23,1.14,0.89,1.12,1.62l-0.06,2.27c-0.02,0.59,0.33,1.13,0.87,1.36l1.89,0.8l0.37,2.2c0.11,0.65,0.78,1.04,1.4,0.82
					l0.48-0.17c0,0,0.28-4.9,4.32-4.65c0,0,3.27-7.08-0.08-13.56c-3.35-6.47-12.55-6.01-14.51-5.28c-2.58,0.97-2.22,0.82-3.7,1.74
					C219.79,94.03,217.64,96.28,216.35,99.03z"/>
				<path class="st4" d="M249.44,148.96c0,0-1.88,13.88-2.66,17.81l-6.09,3.21l10.81-0.66L249.44,148.96z"/>
				<path class="st22" d="M240.66,109.53c0,0,1.11-2.4,1.37-5.68c-5.03,3.98-10.65,3.05-10.65,3.05l-0.06,2.27
					c-0.02,0.59,0.33,1.13,0.87,1.36l1.89,0.8l0.37,2.2c0.11,0.65,0.78,1.04,1.4,0.82l0.48-0.17
					C236.34,114.18,236.62,109.28,240.66,109.53z"/>
				<path class="st4" d="M243.35,121.72c0,0-3.22,11.06-3.89,13.19l-2.59-0.27l0.47,3.5l-13.96,18.4l15.5-17.79l-0.61-3.12
					l2.35,0.25L243.35,121.72z"/>
				<path class="st23" d="M229.65,181.84c0,0,32.73-1.07,33.57-1.66c0.84-0.59,0.98-9.02,0.91-13.9
					c-0.05-3.42-0.01-16.82-2.94-26.22c2.3,7.96,1.09,36.09,0.05,37.52c-1.04,1.43-32.18,2.26-32.18,2.26l0,0
					C229.39,181.02,229.65,181.84,229.65,181.84z"/>
				<path class="st18" d="M165.33,155.66c0,0-0.12,0.83-1.55,1.63c-1.42,0.81-5.07,2.61-5.66,3.12c-0.59,0.52-3.22,2.82-3.29,3.13
					c-0.08,0.3-0.87,2.92-0.86,3.07c0.01,0.16,0.26,1.36,0.26,1.36l-0.81,3.86c0,0-1.03,1.5,0.09,1.9c1.12,0.41,1.75-0.75,1.77-0.93
					c0,0,1.69-0.8,2.93-1.76c1.24-0.96,6.21-4.96,7.05-4.71c0.84,0.25,0.07,1.68-0.34,1.92c-0.4,0.25-3.04,2.82-1.94,4.61
					c1.1,1.79,1.82-1.01,2.55-1.58c0.73-0.57,2.3-2.81,3.27-3.09c0.97-0.28,2.72-3.88,2.95-5.49c0.23-1.61,1.38-2.65,1.79-3.17
					c0.41-0.52-0.89-4.52-0.89-4.52l-4.92-1.53l-1.72,1.12L165.33,155.66z"/>
			</g>
		</g>
		<g>
			<defs>
				<path id="SVGID_7_" d="M240.12,191.57l-0.58-0.33c-2.14-1.24-1.87-3.4,0.6-4.82l17.44-10.07c2.47-1.43,6.21-1.58,8.36-0.35
					l0.58,0.33c2.14,1.24,1.87,3.4-0.6,4.82l-17.44,10.07C246,192.65,242.26,192.8,240.12,191.57z"/>
			</defs>
			<clipPath id="SVGID_8_">
				<use xlink:href="#SVGID_7_"  style="overflow:visible;"/>
			</clipPath>
			<path class="st24" d="M258.77,134.55c-1.03-1.63-1.5-0.42-2.88,0.92c-1.86,1.81-4.2,4.61-5.41,8.16
				c-2.2,6.45-1.41,22.58-0.67,24.88c0,0-20.5,3.36-21.92,3.3c-1.42-0.06,1.76,10.03,1.76,10.03s32.73-1.07,33.57-1.66
				c0.84-0.59,0.98-9.02,0.91-13.9C264.06,162.1,264.13,143.02,258.77,134.55z"/>
			<path class="st25" d="M229.65,181.84c0,0,32.73-1.07,33.57-1.66c0.84-0.59,0.98-9.02,0.91-13.9c-0.05-3.42-0.01-16.82-2.94-26.22
				c2.3,7.96,1.09,36.09,0.05,37.52c-1.04,1.43-32.18,2.26-32.18,2.26l0,0C229.39,181.02,229.65,181.84,229.65,181.84z"/>
		</g>
		<linearGradient id="SVGID_9_" gradientUnits="userSpaceOnUse" x1="238.0967" y1="185.2614" x2="267.9613" y2="185.2614">
			<stop  offset="0.3548" style="stop-color:#D3C9CC"/>
			<stop  offset="0.4365" style="stop-color:#CDC2C5"/>
			<stop  offset="0.5523" style="stop-color:#BBB0B3"/>
			<stop  offset="0.6879" style="stop-color:#9D9194"/>
			<stop  offset="0.6975" style="stop-color:#9B8F92"/>
			<stop  offset="0.843" style="stop-color:#72686B"/>
			<stop  offset="0.8925" style="stop-color:#63595C"/>
		</linearGradient>
		<path class="st26" d="M267.96,178.25l-0.01,0c-0.07-0.72-0.53-1.4-1.43-1.92l-0.58-0.33c-2.14-1.24-5.88-1.08-8.36,0.35
			l-17.44,10.07c-1.31,0.76-2,1.72-2.04,2.64l-0.01,0l0,3.04l0.01,0c0,0.79,0.47,1.54,1.44,2.1l0.58,0.33
			c2.14,1.24,5.88,1.08,8.36-0.35l17.44-10.07c1.27-0.73,1.95-1.66,2.03-2.56l0.01-0.01V178.25z"/>
		<g>
			<path class="st12" d="M240.12,191.57l-0.58-0.33c-2.14-1.24-1.87-3.4,0.6-4.82l17.44-10.07c2.47-1.43,6.21-1.58,8.36-0.35
				l0.58,0.33c2.14,1.24,1.87,3.4-0.6,4.82l-17.44,10.07C246,192.65,242.26,192.8,240.12,191.57z"/>
		</g>
		<g>
			<linearGradient id="SVGID_10_" gradientUnits="userSpaceOnUse" x1="83.3039" y1="190.72" x2="286.7535" y2="190.72">
				<stop  offset="0" style="stop-color:#42E8E0"/>
				<stop  offset="0.1507" style="stop-color:#43E3E0"/>
				<stop  offset="0.3285" style="stop-color:#45D5DF"/>
				<stop  offset="0.5199" style="stop-color:#49BDDD"/>
				<stop  offset="0.7209" style="stop-color:#4E9CDB"/>
				<stop  offset="0.9274" style="stop-color:#5472D8"/>
				<stop  offset="1" style="stop-color:#5761D7"/>
			</linearGradient>
			<polygon class="st27" points="229.45,249.44 83.3,165.08 140.6,132 286.75,216.36 			"/>
			<linearGradient id="SVGID_11_" gradientUnits="userSpaceOnUse" x1="53.1756" y1="204.7065" x2="256.6252" y2="204.7065">
				<stop  offset="0.3548" style="stop-color:#D3C9CC"/>
				<stop  offset="0.4365" style="stop-color:#CDC2C5"/>
				<stop  offset="0.5523" style="stop-color:#BBB0B3"/>
				<stop  offset="0.6879" style="stop-color:#9D9194"/>
				<stop  offset="0.6975" style="stop-color:#9B8F92"/>
				<stop  offset="0.843" style="stop-color:#72686B"/>
				<stop  offset="0.8925" style="stop-color:#63595C"/>
			</linearGradient>
			<polygon class="st28" points="83.3,159.98 83.3,165.08 229.45,249.44 286.75,216.36 286.75,211.25 229.45,244.33 			"/>
			<polygon class="st10" points="229.45,244.33 83.3,159.98 140.6,126.89 286.75,211.25 			"/>
			<polygon class="st29" points="229.45,243.81 83.76,159.71 83.3,159.98 229.45,244.33 286.75,211.25 286.3,210.99 			"/>
		</g>
		<path class="st30" d="M212.06,182.69c0,0,4.1,1.46,7.23,0.94c3.13-0.52,18.21-0.82,18.21-0.82l-2.37-1.37l-5.29-3.68l-13.1,0.88
			l-5.05,1.81L212.06,182.69z"/>
		<path class="st18" d="M227.98,172.35c-0.02-0.08-0.09-0.14-0.18-0.14c-1.05-0.03-7.86-0.23-10.44-1.12
			c-2.79-0.96-5.75-0.79-5.9-0.63c-0.15,0.16-4.8,2.14-5.08,2.94c-0.25,0.71-0.69,3.18-0.08,4.09c0.62,0.91,0.91,1.52,0.91,1.52
			l0.48,0.05c0,0,0.63,1.23,0.98,1.67c0.16,0.19,0.28,0.4,0.38,0.62c0.29,0.63,0.81,1.68,1.02,1.7c0.31,0.03,1.75,0.32,2.12,0.22
			c0.3-0.08,0.57-0.99,0.45-1.39c-0.03-0.11,0.02-0.21,0.14-0.23c0.66-0.11,2.46-0.34,4.95-0.11c3.03,0.28,7.32-1.7,7.7-1.89
			c0.02-0.01,0.04-0.01,0.06-0.02l4.27-0.39c0.12-0.01,0.2-0.13,0.17-0.25L227.98,172.35z"/>
		<path class="st31" d="M258.77,134.55c-1.03-1.63-1.5-0.42-2.88,0.92c-1.86,1.81-4.2,4.61-5.41,8.16
			c-2.2,6.45-1.41,22.58-0.67,24.88c0,0-20.5,3.36-21.92,3.3c-1.42-0.06,1.76,10.03,1.76,10.03s32.73-1.07,33.57-1.66
			c0.84-0.59,0.98-9.02,0.91-13.9C264.06,162.1,264.13,143.02,258.77,134.55z"/>
		<path class="st4" d="M229.65,181.84c0,0,32.73-1.07,33.57-1.66c0.84-0.59,0.98-9.02,0.91-13.9c-0.05-3.42-0.01-16.82-2.94-26.22
			c2.3,7.96,1.09,36.09,0.05,37.52c-1.04,1.43-32.18,2.26-32.18,2.26l0,0C229.39,181.02,229.65,181.84,229.65,181.84z"/>
		<path class="st30" d="M170.98,165.08c0,0,11.7-9.14,13.38-10.03c1.67-0.88,2.38-1.56,2.38-1.56l-3.92-2.26l-6.62,2.72l-8.35,8.27
			L155,171.34v2.11c0,0,10.6-4.55,11.78-5.33C167.97,167.35,170.98,165.08,170.98,165.08z"/>
		<path class="st32" d="M164,173.37c0,0,2.49-2.23,4.1-2.97c1.61-0.74,4.17-2.72,4.48-4.23c0.31-1.51,2.97-4.86,2.97-4.86
			l-4.26,2.46l-6.18,3.57l-10.28,5.96c0,0,0.63,0.72,1.93,0.28c1.3-0.44,3.74-2,4.88-2.14c1.14-0.14,3.02-0.49,3.02-0.49L164,173.37
			z"/>
		<path class="st18" d="M165.33,155.66c0,0-0.12,0.83-1.55,1.63c-1.42,0.81-5.07,2.61-5.66,3.12c-0.59,0.52-3.22,2.82-3.29,3.13
			c-0.08,0.3-0.87,2.92-0.86,3.07c0.01,0.16,0.26,1.36,0.26,1.36l-0.81,3.86c0,0-1.03,1.5,0.09,1.9c1.12,0.41,1.75-0.75,1.77-0.93
			c0,0,1.69-0.8,2.93-1.76c1.24-0.96,6.21-4.96,7.05-4.71c0.84,0.25,0.07,1.68-0.34,1.92c-0.4,0.25-3.04,2.82-1.94,4.61
			c1.1,1.79,1.82-1.01,2.55-1.58c0.73-0.57,2.3-2.81,3.27-3.09c0.97-0.28,2.72-3.88,2.95-5.49c0.23-1.61,1.38-2.65,1.79-3.17
			c0.41-0.52-0.89-4.52-0.89-4.52l-4.92-1.53l-1.72,1.12L165.33,155.66z"/>
		<g>
			<path class="st31" d="M209.73,128.66c0,0-0.18-7.33,1.07-12.96c-0.34,0.27-0.67,0.55-0.98,0.87c-1.77,1.85-4.25,4.16-6.64,5.45
				c-4.41,2.39-17.67,9.75-17.67,9.75l-2.46,1.91c-7.78,6.1-16.46,19.36-17.72,21.99c0.61-0.81,2.17-2.15,5.17-0.55
				c4.13,2.2,2.17,5.5,2.17,5.5c6.01-4.3,20.31-20.18,20.31-20.18c3.53-0.74,14.13-4.7,15.45-5.19
				C209.28,133.03,209.77,130.81,209.73,128.66z"/>
		</g>
	</g>
	<g>
		<g>
			<g>
				<g>
					<g>
						<g>
							<path class="st4" d="M135.36,178.62l2.84,1.48l28.47-16.44c0.48-0.28,1.31-0.24,1.86,0.08l49.11,28.35
								c0.47-0.26,2.61-1.29,2.61-1.29l-1.04,2.71c0,0,0,0,0,0c-0.04,0.12-0.14,0.23-0.29,0.32l-29.99,17.31
								c-0.48,0.28-1.31,0.24-1.86-0.08l-50.25-29.01c-0.23-0.13-0.36-0.29-0.42-0.45l0,0L135.36,178.62z"/>
							<path class="st9" d="M135.8,179.09l51.5,29.74c0.56,0.33,1.42,0.36,1.9,0.08l30.73-17.74c0.49-0.28,0.43-0.77-0.14-1.1
								l-51.5-29.74c-0.56-0.33-1.42-0.36-1.9-0.08l-30.73,17.74C135.17,178.27,135.24,178.76,135.8,179.09z"/>
							<path class="st29" d="M135.8,178.79l51.5,29.74c0.56,0.33,1.42,0.36,1.9,0.08l30.73-17.74c0.16-0.09,0.25-0.21,0.3-0.33
								c0.08,0.23-0.02,0.47-0.3,0.63l-30.73,17.74c-0.49,0.28-1.34,0.25-1.9-0.08l-51.5-29.74c-0.38-0.22-0.53-0.51-0.44-0.77
								C135.42,178.49,135.56,178.65,135.8,178.79z"/>
							<g>
								<path class="st4" d="M202.61,195.19l-42.8-24.71c-0.29-0.16-0.64-0.16-0.92,0l-15.24,8.82c-0.22,0.13-0.22,0.44,0,0.57
									l42.78,24.7c0.29,0.16,0.64,0.16,0.92,0l15.26-8.81C202.83,195.63,202.83,195.32,202.61,195.19z"/>
								<path class="st4" d="M202.61,195.76l-0.15,0.09l-42.65-24.62c-0.29-0.16-0.64-0.16-0.92,0l-15.09,8.73l-0.15-0.09
									c-0.22-0.13-0.22-0.44,0-0.57l15.24-8.82c0.29-0.16,0.64-0.17,0.92,0l42.8,24.71C202.83,195.32,202.83,195.63,202.61,195.76
									z"/>
								<g>
									<polygon class="st12" points="157.74,172.71 197.17,195.47 199.12,194.69 159.4,171.76 									"/>
									<polygon class="st5" points="153.69,175.05 188.56,195.19 190.21,194.23 155.34,174.1 									"/>
									<polygon class="st12" points="151.05,176.58 192.11,200.28 193.76,199.33 152.7,175.62 									"/>
									<polygon class="st12" points="148.41,178.1 189.47,201.8 191.12,200.85 150.06,177.15 									"/>
									<polygon class="st5" points="145.77,179.62 186.83,203.33 188.48,202.37 147.42,178.67 									"/>
									<polygon class="st12" points="197.17,195.47 198.82,196.43 200.47,195.47 198.82,194.52 									"/>
									<polygon class="st12" points="186.56,194.03 194.77,198.77 196.42,197.81 188.15,193.04 									"/>
								</g>
							</g>
							<g>
								<path class="st16" d="M187.38,184.12l-11.54-6.66c-0.45-0.26-0.45-0.68,0-0.94l7.89-4.56c0.45-0.26,1.18-0.26,1.63,0
									l11.54,6.66c0.45,0.26,0.45,0.68,0,0.94l-7.89,4.56C188.56,184.38,187.83,184.38,187.38,184.12z"/>
								<path class="st4" d="M196.9,179l-11.54-6.66c-0.45-0.26-1.18-0.26-1.63,0l-7.89,4.56c-0.14,0.08-0.23,0.18-0.28,0.28
									c-0.12-0.23-0.03-0.48,0.28-0.66l7.89-4.56c0.45-0.26,1.18-0.26,1.63,0l11.54,6.66c0.31,0.18,0.4,0.44,0.28,0.66
									C197.13,179.18,197.04,179.08,196.9,179z"/>
							</g>
						</g>
					</g>
				</g>
			</g>
		</g>
		<g>
			<path class="st19" d="M135.44,177.85l6.51-38.63l-0.52-0.22l0.79-0.45l0,0c0.15-0.1,0.37-0.1,0.61,0.04l52.03,30.04
				c0.43,0.25,0.75,0.88,0.68,1.32l-6.56,38.93c-0.03,0.2-0.13,0.34-0.27,0.4l0,0l-0.77,0.44l-0.13-0.72l0.04,0.01l-51.72-29.86
				C135.69,178.93,135.37,178.3,135.44,177.85z"/>
			<path class="st4" d="M194.56,169.7l0.86-0.38c0.1,0.22,0.14,0.45,0.11,0.64l-6.56,38.93c-0.03,0.2-0.13,0.34-0.27,0.4l0,0
				l-0.77,0.44l-0.13-0.72l0.04,0.01l-2.62-1.51L194.56,169.7z"/>
			<path class="st16" d="M135.3,179.64l52.03,30.04c0.4,0.23,0.75,0.1,0.82-0.32l6.56-38.93c0.07-0.44-0.25-1.07-0.68-1.32
				L142,139.07c-0.4-0.23-0.75-0.1-0.82,0.32l-6.56,38.93C134.55,178.77,134.87,179.4,135.3,179.64z"/>
		</g>
	</g>
</g>
<g>
	<g class="st33">
		<polygon class="st1" points="130.46,252.69 123.52,248.69 125.03,247.81 131.97,251.82 		"/>
		<polygon class="st1" points="136.38,256.11 132.91,254.11 134.42,253.24 137.89,255.24 		"/>
		<polygon class="st1" points="128.96,255.92 126,254.22 127.51,253.34 130.47,255.05 		"/>
		<polygon class="st1" points="133.91,258.78 130.44,256.78 131.95,255.91 135.42,257.91 		"/>
		<polygon class="st1" points="136.09,264.14 122.45,256.27 123.96,255.39 137.6,263.27 		"/>
		<polygon class="st1" points="97.17,279.72 83.53,271.85 85.04,270.98 98.68,278.85 		"/>
		<polygon class="st1" points="102.41,282.75 98.94,280.75 100.46,279.87 103.93,281.88 		"/>
		<polygon class="st1" points="121.86,260.02 118.9,258.31 120.42,257.44 123.37,259.15 		"/>
		<polygon class="st1" points="126.81,262.88 123.34,260.88 124.86,260 128.33,262.01 		"/>
		<polygon class="st1" points="122.85,264.69 115.35,260.36 116.87,259.49 124.36,263.82 		"/>
		<polygon class="st1" points="127.87,267.59 124.4,265.59 125.91,264.71 129.38,266.72 		"/>
		<polygon class="st1" points="132.91,270.5 129.44,268.5 130.96,267.62 134.43,269.63 		"/>
		<polygon class="st1" points="141.06,275.2 134.49,271.41 136,270.54 142.57,274.33 		"/>
		<polygon class="st1" points="130.02,277.03 126.55,275.02 128.07,274.15 131.54,276.15 		"/>
		<polygon class="st1" points="138.16,281.73 131.6,277.94 133.11,277.06 139.68,280.85 		"/>
		<polygon class="st1" points="111.73,266.46 108.26,264.46 109.77,263.59 113.24,265.59 		"/>
		<polygon class="st1" points="116.77,269.38 113.3,267.37 114.81,266.5 118.28,268.5 		"/>
		<polygon class="st1" points="124.91,274.08 118.35,270.29 119.86,269.41 126.43,273.2 		"/>
		<polygon class="st1" points="138.5,277.82 135.03,275.82 136.54,274.95 140.01,276.95 		"/>
		<polygon class="st1" points="143.54,280.74 140.07,278.73 141.59,277.86 145.06,279.86 		"/>
		<polygon class="st1" points="151.68,285.44 145.12,281.65 146.63,280.77 153.2,284.56 		"/>
		<polygon class="st1" points="107.84,285.89 104.37,283.88 105.89,283.01 109.36,285.01 		"/>
		<polygon class="st1" points="115.98,290.59 109.42,286.79 110.93,285.92 117.5,289.71 		"/>
		<polygon class="st1" points="104.63,270.56 101.16,268.56 102.67,267.68 106.14,269.69 		"/>
		<polygon class="st1" points="112.77,275.26 106.2,271.47 107.72,270.6 114.28,274.39 		"/>
		<polygon class="st1" points="108.71,290.48 105.24,288.48 106.75,287.6 110.22,289.61 		"/>
		<polygon class="st1" points="116.85,295.18 110.28,291.39 111.79,290.52 118.36,294.31 		"/>
		<polygon class="st1" points="146.46,270.13 142.99,268.13 144.51,267.25 147.98,269.26 		"/>
		<polygon class="st1" points="141.22,267.1 137.75,265.1 139.26,264.22 142.73,266.23 		"/>
		<polygon class="st1" points="154.6,274.83 148.04,271.04 149.55,270.16 156.12,273.96 		"/>
		<polygon class="st1" points="114.94,264.22 111.8,262.41 113.32,261.54 116.45,263.35 		"/>
		<polygon class="st1" points="124.22,269.58 116.61,265.19 118.12,264.31 125.73,268.71 		"/>
		<polygon class="st1" points="133.51,274.94 125.89,270.55 127.41,269.67 135.02,274.07 		"/>
		<polygon class="st1" points="159.43,277.61 156.3,275.81 157.81,274.93 160.94,276.74 		"/>
		<polygon class="st1" points="168.71,282.97 161.1,278.58 162.61,277.71 170.23,282.1 		"/>
		<polygon class="st1" points="178,288.34 170.39,283.94 171.9,283.07 179.51,287.46 		"/>
		<polygon class="st1" points="112.39,270.94 104.77,266.55 106.29,265.67 113.9,270.07 		"/>
		<polygon class="st1" points="116.4,273.26 114.06,271.91 115.57,271.04 117.91,272.39 		"/>
		<polygon class="st1" points="120.42,275.58 118.08,274.23 119.59,273.36 121.93,274.71 		"/>
		<polygon class="st1" points="127.85,279.87 122.1,276.55 123.61,275.68 129.36,279 		"/>
		<polygon class="st1" points="129.41,280.77 123.66,277.45 125.18,276.58 130.93,279.9 		"/>
		<polygon class="st1" points="144.94,277.44 142.6,276.09 144.11,275.22 146.45,276.57 		"/>
		<polygon class="st1" points="152.37,281.73 146.62,278.42 148.13,277.54 153.88,280.86 		"/>
		<polygon class="st1" points="153.93,282.64 148.18,279.32 149.7,278.44 155.45,281.76 		"/>
		<polygon class="st1" points="96.22,287.37 88.72,283.04 90.24,282.17 97.73,286.5 		"/>
		<polygon class="st1" points="101.24,290.27 97.77,288.26 99.28,287.39 102.75,289.39 		"/>
		<polygon class="st1" points="106.28,293.18 102.81,291.18 104.33,290.3 107.8,292.31 		"/>
		<polygon class="st1" points="114.43,297.88 107.86,294.09 109.37,293.22 115.94,297.01 		"/>
		<polygon class="st1" points="119.63,300.89 116.16,298.88 117.68,298.01 121.15,300.01 		"/>
		<polygon class="st1" points="127.77,305.59 121.21,301.8 122.72,300.92 129.29,304.71 		"/>
		<polygon class="st1" points="96.96,296 93.49,293.99 95.01,293.12 98.48,295.12 		"/>
		<polygon class="st1" points="105.11,300.7 98.54,296.9 100.05,296.03 106.62,299.82 		"/>
		<polygon class="st1" points="78.84,285.53 75.37,283.53 76.88,282.65 80.35,284.66 		"/>
		<polygon class="st1" points="83.88,288.44 80.41,286.44 81.93,285.57 85.4,287.57 		"/>
		<polygon class="st1" points="92.02,293.14 85.46,289.35 86.97,288.48 93.54,292.27 		"/>
		<polygon class="st1" points="88.31,286.9 85.18,285.09 86.69,284.22 89.82,286.02 		"/>
		<polygon class="st1" points="97.59,292.26 89.98,287.87 91.49,286.99 99.1,291.39 		"/>
		<polygon class="st1" points="106.88,297.62 99.27,293.23 100.78,292.35 108.39,296.75 		"/>
		<polygon class="st1" points="73.36,286.46 65.75,282.07 67.26,281.2 74.87,285.59 		"/>
		<polygon class="st1" points="77.37,288.78 75.03,287.43 76.55,286.56 78.88,287.91 		"/>
		<polygon class="st1" points="81.39,291.1 79.05,289.75 80.57,288.88 82.9,290.23 		"/>
		<polygon class="st1" points="88.82,295.39 83.07,292.07 84.59,291.2 90.34,294.52 		"/>
		<polygon class="st1" points="90.39,296.3 84.64,292.98 86.15,292.1 91.9,295.42 		"/>
		<polygon class="st1" points="88.46,278.79 86.12,277.44 87.63,276.57 89.97,277.92 		"/>
		<polygon class="st1" points="95.89,283.08 90.14,279.76 91.65,278.89 97.4,282.21 		"/>
		<polygon class="st1" points="103.49,287.47 97.74,284.15 99.25,283.27 105,286.59 		"/>
		<polygon class="st1" points="126.92,309.19 123.45,307.19 124.96,306.31 128.43,308.32 		"/>
		<polygon class="st1" points="135.06,313.89 128.49,310.1 130,309.22 136.57,313.02 		"/>
		<polygon class="st1" points="114.1,301.79 108.35,298.47 109.86,297.6 115.61,300.92 		"/>
		<polygon class="st1" points="121.7,306.18 115.95,302.86 117.46,301.98 123.21,305.3 		"/>
		<polygon class="st1" points="93.98,268.51 91.65,267.16 93.16,266.29 95.5,267.64 		"/>
		<polygon class="st1" points="101.42,272.8 95.67,269.48 97.18,268.61 102.93,271.93 		"/>
		<polygon class="st1" points="109.01,277.19 103.26,273.87 104.77,273 110.52,276.32 		"/>
	</g>
	<path class="st1" d="M15.11,260.45c-0.93,0-1.82-0.19-2.48-0.57l-6.05-3.49c-0.68-0.39-1.05-0.94-1.05-1.55
		c0-0.72,0.53-1.44,1.44-1.96l17.99-10.39c1.67-0.97,4.22-1.07,5.67-0.23l6.05,3.49c0.68,0.39,1.05,0.94,1.05,1.55
		c0,0.72-0.53,1.44-1.44,1.97l-17.99,10.39C17.4,260.18,16.22,260.45,15.11,260.45z M28.17,242.1c-1.04,0-2.13,0.25-2.99,0.75
		L7.19,253.24c-0.78,0.45-1.23,1.04-1.23,1.6c0,0.45,0.3,0.88,0.84,1.19l6.05,3.49c1.34,0.77,3.7,0.67,5.26-0.23l17.99-10.39
		c0.78-0.45,1.23-1.04,1.23-1.6c0-0.45-0.3-0.88-0.84-1.19l-6.05-3.49C29.83,242.27,29.02,242.1,28.17,242.1z"/>
	<path class="st1" d="M47.58,279.2c-0.93,0-1.82-0.19-2.48-0.57l-20.16-11.64c-0.68-0.39-1.05-0.94-1.05-1.55
		c0-0.72,0.53-1.44,1.44-1.96l17.99-10.39c1.67-0.96,4.22-1.07,5.67-0.23l20.17,11.64c0.68,0.39,1.05,0.94,1.05,1.55
		c0,0.72-0.53,1.44-1.44,1.97L50.78,278.4C49.86,278.93,48.69,279.2,47.58,279.2z M46.52,252.7c-1.04,0-2.13,0.25-2.99,0.75
		l-17.99,10.39c-0.78,0.45-1.23,1.04-1.23,1.6c0,0.45,0.3,0.88,0.84,1.19l20.17,11.64c1.34,0.77,3.7,0.67,5.26-0.23l17.99-10.39
		c0.78-0.45,1.23-1.04,1.23-1.6c0-0.45-0.3-0.88-0.84-1.19l-20.17-11.64C48.18,252.87,47.37,252.7,46.52,252.7z"/>
	<path class="st1" d="M77.38,261.94c-0.97,0-1.91-0.2-2.6-0.6l-38.25-22.08c-0.71-0.41-1.1-0.99-1.1-1.62c0-0.75,0.55-1.5,1.51-2.06
		l37.42-21.61c1.75-1.01,4.43-1.12,5.96-0.24l38.25,22.08c0.71,0.41,1.1,0.99,1.1,1.62c0,0.75-0.55,1.5-1.51,2.06l-37.42,21.61
		C79.78,261.66,78.54,261.94,77.38,261.94z M74.98,260.98c1.41,0.81,3.9,0.71,5.54-0.24l37.42-21.61c0.83-0.48,1.3-1.1,1.3-1.7
		c0-0.48-0.32-0.93-0.89-1.26l-38.25-22.08c-1.41-0.82-3.9-0.71-5.54,0.24l-37.42,21.61c-0.83,0.48-1.3,1.1-1.3,1.7
		c0,0.48,0.32,0.93,0.89,1.26L74.98,260.98z"/>
</g>
</svg>
