<?xml version="1.0" encoding="utf-8"?>
<!-- Generator: Adobe Illustrator 23.0.0, SVG Export Plug-In . SVG Version: 6.00 Build 0)  -->
<svg version="1.1" id="Camada_1" xmlns="http://www.w3.org/2000/svg" xmlns:xlink="http://www.w3.org/1999/xlink" x="0px" y="0px"
	 viewBox="0 0 24 24" style="enable-background:new 0 0 24 24;" xml:space="preserve">
<style type="text/css">
	.st0{fill:#FFFFFF;}
	.st1{fill:none;}
</style>
<path class="st0" d="M12,2C6.48,2,2,6.48,2,12s4.48,10,10,10s10-4.48,10-10S17.52,2,12,2z M12,5c1.66,0,3,1.34,3,3s-1.34,3-3,3
	S9,9.66,9,8S10.34,5,12,5z M12,19.2c-2.5,0-4.71-1.28-6-3.22c0.03-1.99,4-3.08,6-3.08c1.99,0,5.97,1.09,6,3.08
	C16.71,17.92,14.5,19.2,12,19.2z"/>
<path class="st1" d="M0,0h24v24H0V0z"/>
</svg>
